<?xml version="1.0" encoding="utf-8"?>
<!-- Generator: Adobe Illustrator 25.2.1, SVG Export Plug-In . SVG Version: 6.00 Build 0)  -->
<svg version="1.1" id="Layer_1" xmlns="http://www.w3.org/2000/svg" xmlns:xlink="http://www.w3.org/1999/xlink" x="0px" y="0px"
	 viewBox="0 0 512 512" style="enable-background:new 0 0 512 512;" xml:space="preserve">
<style type="text/css">
	.st0{fill:#FFFFFF;}
</style>
<g>
	<path class="st0" d="M104,376c-13.3,0-24,10.7-24,24s10.7,24,24,24s24-10.7,24-24C128,386.8,117.2,376,104,376z M104,408
		c-4.4,0-8-3.6-8-8s3.6-8,8-8s8,3.6,8,8C112,404.4,108.4,408,104,408z"/>
	<path class="st0" d="M408,376c-13.3,0-24,10.7-24,24s10.7,24,24,24s24-10.7,24-24C432,386.8,421.2,376,408,376z M408,408
		c-4.4,0-8-3.6-8-8s3.6-8,8-8s8,3.6,8,8C416,404.4,412.4,408,408,408z"/>
	<path class="st0" d="M502.7,267.7l-72-112c-1.5-2.3-4-3.7-6.7-3.7h-96v-44c0-15.5-12.5-28-28-28H36C20.5,80,8,92.5,8,108v292
		c0,4.4,3.6,8,8,8h32.6c4.4,30.6,32.8,51.8,63.4,47.4c24.6-3.5,43.9-22.8,47.4-47.4h193.2c4.4,30.6,32.8,51.8,63.4,47.4
		c24.6-3.5,43.9-22.8,47.4-47.4H496c4.4,0,8-3.6,8-8V272C504,270.5,503.6,269,502.7,267.7z M104,440c-22.1,0-40-17.9-40-40
		s17.9-40,40-40s40,17.9,40,40C144,422.1,126.1,440,104,440z M312,392H159.4c-4.4-30.6-32.8-51.8-63.4-47.4
		c-24.6,3.5-43.9,22.8-47.4,47.4H24v-80h288V392z M312,296H24V108c0-6.6,5.4-12,12-12h264c6.6,0,12,5.4,12,12V296z M435.1,192
		l46.3,72H368v-72H435.1z M408,440c-22.1,0-40-17.9-40-40s17.9-40,40-40s40,17.9,40,40C448,422.1,430.1,440,408,440z M488,328h-16
		c-4.4,0-8-3.6-8-8s3.6-8,8-8h16V328z M488,296h-16c-13.3,0-24,10.7-24,24s10.7,24,24,24h16v48h-24.6c-4.4-30.6-32.8-51.8-63.4-47.4
		c-24.6,3.5-43.9,22.8-47.4,47.4H328V168h91.6l5.1,8H360c-4.4,0-8,3.6-8,8v88c0,4.4,3.6,8,8,8h128V296z"/>
	<path class="st0" d="M384,296h-24c-4.4,0-8,3.6-8,8s3.6,8,8,8h24c4.4,0,8-3.6,8-8S388.4,296,384,296z"/>
	<path class="st0" d="M216,344h64c4.4,0,8-3.6,8-8s-3.6-8-8-8h-64c-4.4,0-8,3.6-8,8S211.6,344,216,344z"/>
	<path class="st0" d="M280,352h-24c-4.4,0-8,3.6-8,8s3.6,8,8,8h24c4.4,0,8-3.6,8-8S284.4,352,280,352z"/>
</g>
</svg>
