<?xml version="1.0" encoding="iso-8859-1"?>
<!-- Generator: Adobe Illustrator 18.1.1, SVG Export Plug-In . SVG Version: 6.00 Build 0)  -->
<svg xmlns="http://www.w3.org/2000/svg" xmlns:xlink="http://www.w3.org/1999/xlink" version="1.1" id="Capa_1" x="0px" y="0px" viewBox="0 0 496.301 496.301" style="enable-background:new 0 0 496.301 496.301;" xml:space="preserve" width="512px" height="512px">
<g>
	<rect x="125.762" y="399.856" width="60.311" height="13.861" fill="#FFFFFF"/>
	<rect x="191.347" y="399.856" width="125.337" height="13.861" fill="#FFFFFF"/>
	<g>
		<path d="M78.968,352.979c-23.129,0-41.861,18.683-41.861,41.848c0,23.205,18.732,41.89,41.861,41.89    c23.102,0,41.851-18.721,41.851-41.89C120.838,371.663,102.088,352.979,78.968,352.979z M78.968,413.175    c-10.133,0-18.364-8.176-18.364-18.347c0-10.092,8.232-18.341,18.364-18.341c10.124,0,18.354,8.249,18.354,18.341    C97.323,405.039,89.053,413.175,78.968,413.175z" fill="#FFFFFF"/>
		<path d="M363.158,352.979c-23.129,0-41.887,18.683-41.887,41.848c0,23.205,18.758,41.89,41.887,41.89    c23.13,0,41.909-18.721,41.909-41.89C405.067,371.663,386.288,352.979,363.158,352.979z M363.158,413.175    c-10.093,0-18.363-8.176-18.363-18.347c0-10.092,8.27-18.341,18.363-18.341c10.135,0,18.402,8.249,18.402,18.341    C381.523,405.039,373.292,413.175,363.158,413.175z" fill="#FFFFFF"/>
		<path d="M182.165,149.864c-44.728,11.399-63.954,39.195-63.954,39.195h63.954V149.864z" fill="#FFFFFF"/>
		<path d="M21.296,294.139C-10.743,342.884,2.875,394.907,2.875,394.907h28.95    c0-25.993,21.085-47.014,47.059-47.014c26.002,0,47.022,20.983,47.022,47.014h59.866l0.056-190.799c-31.926,0-56.835,0-66.035,0    C83.224,204.108,40.991,262.601,21.296,294.139z M165.251,281.783H51.478c0,0,40.984-60.724,63.747-60.724h50.025L165.251,281.783    L165.251,281.783z" fill="#FFFFFF"/>
		<path d="M246.486,175.667c0-11.527,1.619-22.658,4.378-33.3h-59.781l-0.065,239.712v12.732h125.694    c0-25.973,21.06-47.031,47.014-47.031c25.937,0,47.03,21.02,47.03,47.031h46.127v-57.54h14.975v-64.586    c-23.941,22.658-56.149,36.672-91.651,36.672C306.504,309.432,246.486,249.424,246.486,175.667z M436.407,337.272h7.309v29.116    h-7.309V337.272z" fill="#FFFFFF"/>
		<path d="M379.788,292.46c64.208,0,116.513-52.246,116.513-116.437c0-64.227-52.286-116.438-116.513-116.438    c-64.076,0-116.381,52.191-116.381,116.438C263.407,240.213,315.712,292.46,379.788,292.46z M379.788,77.535    c54.357,0,98.543,44.204,98.543,98.507c0,54.301-44.187,98.525-98.543,98.525c-54.282,0-98.431-44.186-98.431-98.525    C281.319,121.722,325.505,77.535,379.788,77.535z" fill="#FFFFFF"/>
		<path d="M373.411,191.337c1.808,1.751,4.104,2.636,6.327,2.636c2.317,0,4.597-0.885,6.386-2.636    c0,0,0,0,0-0.02l53.775-53.774c3.483-3.512,3.483-9.163,0-12.638c-3.543-3.503-9.155-3.503-12.639,0l-47.466,47.444    l-47.426-47.444c-3.522-3.503-9.173-3.503-12.639,0c-3.484,3.512-3.484,9.143,0,12.638L373.411,191.337z" fill="#FFFFFF"/>
	</g>
</g>
<g>
</g>
<g>
</g>
<g>
</g>
<g>
</g>
<g>
</g>
<g>
</g>
<g>
</g>
<g>
</g>
<g>
</g>
<g>
</g>
<g>
</g>
<g>
</g>
<g>
</g>
<g>
</g>
<g>
</g>
</svg>
