<?xml version="1.0" encoding="utf-8"?>
<!-- Generator: Adobe Illustrator 19.1.0, SVG Export Plug-In . SVG Version: 6.00 Build 0)  -->
<!DOCTYPE svg PUBLIC "-//W3C//DTD SVG 1.1//EN" "http://www.w3.org/Graphics/SVG/1.1/DTD/svg11.dtd">
<svg version="1.1" id="Capa_1" xmlns="http://www.w3.org/2000/svg" xmlns:xlink="http://www.w3.org/1999/xlink" x="0px" y="0px"
	 width="500.1px" height="500px" viewBox="-49 -140 500.1 500" style="enable-background:new -49 -140 500.1 500;"
	 xml:space="preserve">
<style type="text/css">
	.st0{fill:#130762;}
</style>
<g>
	<g>
		<g>
			<path class="st0" d="M-9.6-44.4L170.7,98.4c8.1,6.4,19.5,9.5,30.4,8.8c11,0.5,22.2-2.3,30.4-8.8L411.7-44.5
				c14.5-11.4,11.2-20.7-7.1-20.7H201H-2.4C-20.7-65.1-23.9-55.8-9.6-44.4z"/>
			<path class="st0" d="M424.6-6.7L227.7,142.8c-7.2,5.5-16.9,8.2-26.6,8.1c-9.7,0.1-19.3-2.6-26.6-8.1L-22.5-6.7
				c-14.7-11.1-26.6-5.1-26.6,13.2v245.4c0,18.3,15,33.3,33.3,33.3H201h216.8c18.3,0,33.3-15,33.3-33.3V6.4
				C451.2-11.9,439.3-17.8,424.6-6.7z"/>
		</g>
	</g>
</g>
</svg>
