<?xml version="1.0" encoding="utf-8"?>
<!-- Generator: Adobe Illustrator 24.2.1, SVG Export Plug-In . SVG Version: 6.00 Build 0)  -->
<svg version="1.1" id="Layer_1" xmlns="http://www.w3.org/2000/svg" xmlns:xlink="http://www.w3.org/1999/xlink" x="0px" y="0px"
	 viewBox="0 0 595.56 249.96" style="enable-background:new 0 0 595.56 249.96;" xml:space="preserve">
<style type="text/css">
	.st0{fill-rule:evenodd;clip-rule:evenodd;fill:#FBFFFF;}
	.st1{fill-rule:evenodd;clip-rule:evenodd;fill:#AA9312;}
	.st2{fill-rule:evenodd;clip-rule:evenodd;fill:#E30B94;}
	.st3{fill-rule:evenodd;clip-rule:evenodd;fill:#130762;}
	.st4{fill:#DDDDDD;}
	.st5{fill:none;stroke:#130762;stroke-width:0.5795;stroke-miterlimit:22.9256;}
	.st6{fill:#AA930C;}
	.st7{fill:none;stroke:#130762;stroke-width:0.5794;stroke-miterlimit:22.9256;}
</style>
<path class="st0" d="M297.78,0c164.46,0,297.78,55.96,297.78,124.98S462.24,249.96,297.78,249.96C133.32,249.96,0,194,0,124.98
	S133.32,0,297.78,0"/>
<path class="st1" d="M298,4.99c161.36,0,292.17,53.72,292.17,119.99S459.37,244.97,298,244.97S5.83,191.25,5.83,124.98
	S136.64,4.99,298,4.99"/>
<path class="st2" d="M298,8.7c158.55,0,287.08,51.96,287.08,116.06c0,64.1-128.53,116.06-287.08,116.06S10.92,188.86,10.92,124.76
	C10.92,60.66,139.45,8.7,298,8.7"/>
<path class="st3" d="M298.35,12.63c156.42,0,283.22,50.13,283.22,111.96s-126.8,111.96-283.22,111.96S15.13,186.43,15.13,124.59
	S141.93,12.63,298.35,12.63"/>
<path class="st3" d="M298.69,16.49c154.21,0,279.22,48.33,279.22,107.94c0,59.61-125.01,107.94-279.22,107.94
	c-154.21,0-279.22-48.33-279.22-107.94C19.46,64.82,144.48,16.49,298.69,16.49"/>
<path class="st0" d="M299.03,20.31c151.93,0,275.1,46.56,275.1,103.99c0,57.43-123.17,103.99-275.1,103.99
	c-151.93,0-275.1-46.56-275.1-103.99C23.93,66.86,147.1,20.31,299.03,20.31"/>
<path class="st4" d="M489.4,96.08c2.71-1.34,5.52-3.06,8.44-5.15c3.91-2.75,5.78-4.79,5.63-6.12c-0.06-0.54-0.42-0.77-1.1-0.69
	c-2.01,0.23-4.56,1.9-7.68,5C491.92,91.92,490.16,94.24,489.4,96.08 M483.59,98.69c-1.51,0.44-4.27,1.81-8.31,4.09
	c-3.55,2-6.3,3.11-8.24,3.34c-0.36,0.04-0.57-0.08-0.6-0.39c-0.05-0.42,0.31-0.73,1.1-0.92c1.86-0.44,4.39-1.58,7.63-3.42
	c3.57-1.99,6.51-3.32,8.83-4c1.12-2.65,3.73-5.59,7.82-8.84c4.36-3.48,8.19-5.41,11.5-5.79c2.46-0.29,3.77,0.34,3.95,1.86
	c0.23,1.99-2.12,4.48-7.03,7.43c-3.59,2.19-7.34,4.02-11.22,5.47c-0.34,0.75-0.48,1.5-0.39,2.27c0.13,1.14,0.78,1.82,1.94,2.03
	c0.57,0.1,1.63,0.06,3.19-0.07c1.12-0.11,1.69,0.03,1.73,0.41c0.07,0.61-1.79,1.12-5.57,1.57c-4,0.47-6.14-0.56-6.43-3.08
	C483.42,100.06,483.45,99.41,483.59,98.69z M467.86,106.09c-3.35,0.34-5.16-0.63-5.43-2.91c-11.38,13.1-16.91,20.97-16.61,23.6
	c0.11,0.98,0.77,1.41,1.94,1.27c2.81-0.33,6.65-3.5,11.56-9.51C463.29,113.68,466.15,109.53,467.86,106.09z M468.33,104.92
	c1.09-2.21,1.56-4.05,1.39-5.54c-0.12-1.04-0.75-1.49-1.86-1.36c-0.99,0.12-1.91,0.83-2.72,2.14c-0.75,1.2-1.08,2.21-0.98,3.03
	c0.17,1.45,1.31,2.06,3.41,1.82L468.33,104.92z M468.31,90.92l-14.45,11.13c-5.76,4.42-10.27,6.81-13.53,7.19
	c-0.36,0.04-0.57-0.08-0.6-0.39c-0.04-0.38,0.32-0.69,1.1-0.92c1.17-0.32,2.46-0.81,3.83-1.47c2.34-1.04,6.64-3.96,12.92-8.76
	c5.14-3.9,9.36-7.27,12.62-10.1c4.43-3.82,12.71-12,24.83-24.53c1.56-1.61,2.83-2.47,3.81-2.59c1.13-0.13,1.74,0.21,1.84,1.04
	c0.07,0.56-0.16,1.2-0.67,1.92l-6.99,7.25l-8.21,8.36l-16.77,17.85c2.16-0.28,3.35,0.54,3.57,2.43c0.4,3.46-2.43,9.14-8.52,17.04
	c-6.31,8.16-11.59,12.49-15.84,12.99c-1.29,0.15-2.35-0.09-3.2-0.72c-0.85-0.62-1.33-1.42-1.44-2.38c-0.13-1.1,0.21-2.56,1.03-4.4
	c1.27-2.87,5.09-8.1,11.44-15.71L468.31,90.92z M441.15,109.21c-3.35,0.34-5.16-0.63-5.43-2.91c-11.38,13.1-16.91,20.97-16.61,23.6
	c0.11,0.98,0.77,1.41,1.94,1.27c2.81-0.33,6.65-3.5,11.56-9.51C436.58,116.8,439.44,112.65,441.15,109.21z M441.62,108.04
	c1.09-2.21,1.56-4.05,1.39-5.54c-0.12-1.04-0.75-1.49-1.86-1.36c-0.99,0.12-1.91,0.83-2.72,2.14c-0.75,1.2-1.08,2.21-0.98,3.03
	c0.17,1.45,1.31,2.06,3.41,1.82L441.62,108.04z M441.6,94.04l-14.45,11.13c-5.76,4.42-10.27,6.81-13.53,7.19
	c-0.36,0.04-0.57-0.08-0.6-0.39c-0.04-0.38,0.32-0.69,1.1-0.92c1.17-0.32,2.46-0.81,3.83-1.47c2.34-1.04,6.64-3.96,12.92-8.76
	c5.14-3.9,9.36-7.27,12.62-10.1c4.43-3.82,12.72-12,24.83-24.53c1.56-1.61,2.83-2.47,3.81-2.59c1.13-0.13,1.74,0.21,1.84,1.04
	c0.07,0.56-0.16,1.2-0.67,1.92l-6.99,7.25l-8.21,8.36l-16.77,17.85c2.16-0.28,3.35,0.54,3.57,2.43c0.4,3.46-2.43,9.14-8.52,17.04
	c-6.31,8.16-11.59,12.49-15.84,12.99c-1.29,0.15-2.35-0.09-3.2-0.72c-0.85-0.62-1.33-1.42-1.44-2.38c-0.13-1.1,0.21-2.56,1.03-4.4
	c1.27-2.87,5.09-8.1,11.44-15.71L441.6,94.04z M414.35,110.17c0.07,0.61,1,0.8,2.8,0.59c0.39-0.05,0.62,0.11,0.66,0.49
	c0.05,0.45-0.94,0.79-2.96,1.03c-2.31,0.27-3.54-0.41-3.73-2.02c-0.22-1.87,2.72-6.2,8.85-12.98l-11.67,8.95
	c-6.9,5.3-12.02,8.15-15.36,8.54c-0.36,0.04-0.57-0.08-0.6-0.39c-0.05-0.42,0.23-0.72,0.83-0.89c1.9-0.49,3.6-1.15,5.11-1.99
	c1.9-1.03,5.87-3.8,11.89-8.28l13.05-10.24c0.59-0.23,1.41-0.41,2.45-0.53c1.05-0.12,1.62,0.25,1.72,1.12
	c0.11,0.94-2.06,3.75-6.5,8.45C416.44,106.72,414.26,109.43,414.35,110.17z M431.9,84.57c-1.46,0.17-2.26-0.29-2.39-1.39
	c-0.11-0.93,0.55-1.84,1.95-2.75c1.27-0.83,2.56-1.32,3.91-1.48c1.58-0.19,2.46,0.36,2.61,1.64c0.11,0.91-0.6,1.8-2.11,2.62
	C434.58,83.95,433.25,84.41,431.9,84.57z M428.8,71.37c-1.19,0.14-5.51,4.1-12.97,11.87c-7.1,7.43-11.58,12.5-13.44,15.19
	c18.61-14.2,27.72-23.08,27.3-26.62C429.65,71.46,429.35,71.31,428.8,71.37z M393.27,103.77l-10.6,7.55
	c-5.76,3.77-10.07,5.82-12.9,6.15c-0.36,0.04-0.56-0.07-0.6-0.34c-0.05-0.42,0.48-0.76,1.6-1.03c1.27-0.29,2.71-0.86,4.31-1.72
	c1.93-1.03,5.17-3.13,9.72-6.34c3.33-2.29,6.83-4.81,10.52-7.54c3.98-5.51,9.62-11.65,16.94-18.41c8.12-7.51,13.7-11.44,16.73-11.79
	c1.41-0.16,2.18,0.3,2.31,1.4c0.33,2.81-3.66,7.83-11.99,15.07c-5.27,4.56-11.06,9.04-17.36,13.46c-1.45,1.03-3.19,3.06-5.19,6.08
	c-2.09,3.09-3.06,5.22-2.93,6.39c0.07,0.56,0.96,0.73,2.68,0.53c0.41-0.05,0.63,0.1,0.67,0.44c0.05,0.43-0.74,0.75-2.37,0.94
	c-2.57,0.3-3.97-0.49-4.19-2.35C390.43,110.44,391.3,107.6,393.27,103.77z M384.12,99.88c-0.86,0.39-2.05,1.26-3.54,2.62
	c-1.63,1.44-2.41,2.4-2.35,2.88l0.41,0.22c0.83-0.1,1.91-0.92,3.24-2.45C383.01,101.83,383.76,100.75,384.12,99.88z M364.35,108.63
	l-8.96,6.62c-4.67,3.15-8.3,4.87-10.9,5.18c-0.36,0.04-0.57-0.07-0.6-0.36c-0.05-0.42,0.28-0.74,1-0.94c2.81-0.73,6.48-2.74,11.05-6
	l11.91-8.91c6.51-4.99,11.64-7.7,15.41-8.14c1.99-0.23,3.06,0.22,3.2,1.37c0.69-0.08,1.06,0.1,1.11,0.53
	c0.04,0.37-0.31,0.6-1.06,0.71c-0.43,1.66-1.4,3.37-2.91,5.14c-1.82,2.11-3.67,3.28-5.55,3.5c-1.11,0.13-1.71-0.17-1.79-0.9
	c-0.12-1.05,0.91-2.54,3.12-4.49c1.96-1.74,3.74-2.95,5.37-3.66l0.05-0.38c-0.04-0.31-0.27-0.43-0.7-0.38
	c-2.01,0.23-5.45,2.64-10.32,7.23c-4.88,4.59-7.23,7.67-7.04,9.24c0.12,0.99,0.79,1.62,2.02,1.88c0.62,0.14,1.75,0.15,3.38,0.08
	c1.19-0.05,1.81,0.09,1.84,0.39c0.05,0.47-1,0.84-3.15,1.09c-4.81,0.56-7.4-0.74-7.77-3.9
	C362.92,112.32,363.35,110.68,364.35,108.63z M356.87,96.81l-16.54,2.42c-0.92,0.11-1.4-0.02-1.44-0.39
	c-0.03-0.3,0.69-0.61,2.18-0.95c2.09-0.49,5.04-1.05,8.86-1.68c4.25-0.67,7.22-1.19,8.93-1.54l5.9-6.48
	c3.17-3.44,5.13-5.2,5.87-5.29c0.93-0.11,1.43,0.26,1.53,1.11c0.11,0.91-2.33,4.24-7.32,9.96c3.18-0.53,5.84-0.93,7.94-1.17
	c1.4-0.16,2.13-0.04,2.17,0.36c0.05,0.45-1.61,0.94-4.98,1.5l-6.94,0.98l-9.12,10.52c-5.71,6.88-8.5,10.91-8.36,12.09
	c0.07,0.56,0.6,0.79,1.61,0.68c1.01-0.11,1.53,0.02,1.57,0.4c0.05,0.45-0.6,0.75-1.94,0.91c-2.73,0.32-4.19-0.32-4.37-1.93
	c-0.15-1.27,0.53-3.19,2.03-5.78l3.43-5.35l-12.7,9.39c-5.3,3.92-9.47,6.07-12.54,6.42c-0.36,0.04-0.57-0.08-0.6-0.39
	c-0.05-0.4,0.24-0.7,0.83-0.89c1.02-0.28,2.55-0.85,4.6-1.72c1.96-1.02,6.25-3.96,12.86-8.83c4.89-3.57,7.98-5.88,9.22-6.93
	C351.76,102.35,354.2,99.88,356.87,96.81z M328.74,105.17c-1.82,0.21-5.32,2.63-10.54,7.23c-5.22,4.62-7.75,7.59-7.59,8.91
	c0.07,0.61,0.5,0.87,1.3,0.78c1.76-0.21,5.28-2.57,10.58-7.12c5.3-4.55,7.87-7.49,7.71-8.84
	C330.11,105.38,329.63,105.06,328.74,105.17z M307.05,117.68c-7.61,5.64-12.96,8.64-16.05,9c-0.36,0.04-0.57-0.08-0.6-0.39
	c-0.05-0.42,0.28-0.73,1.01-0.91c2.85-0.67,6.63-2.76,11.37-6.24l5.53-4.06l8.86-6.63c4.09-2.69,7.68-4.21,10.77-4.57
	c2.29-0.27,3.67,0.42,4.15,2.06c1.11-0.95,1.91-1.45,2.37-1.5c1.02-0.12,1.57,0.11,1.64,0.69c0.09,0.79-2,3.45-6.27,8
	c-4.27,4.55-6.37,7.15-6.29,7.81c0.05,0.46,0.61,0.64,1.68,0.53c1.07-0.1,1.62,0.03,1.67,0.4c0.05,0.46-0.97,0.81-3.09,1.06
	c-2.09,0.24-3.21-0.3-3.37-1.61c-0.12-1.05,0.53-2.63,1.95-4.77l-5.28,4.21c-2.61,1.86-4.75,2.88-6.4,3.08
	c-2.63,0.31-4.07-0.51-4.29-2.46C306.29,120.28,306.5,119.06,307.05,117.68z M293.39,84.14c0.19,0.52,0.3,0.89,0.32,1.09
	c0.04,0.35-1.38,1.92-4.25,4.68l-5.24,4.96c-8.99,9.01-17.09,17.58-24.28,25.69c-3.54,3.99-6.17,7.15-7.92,9.49
	c-1.25,1.69-2.34,2.58-3.25,2.69c-1.55,0.18-2.39-0.28-2.51-1.38c-0.27-2.3,11.69-15.58,35.87-39.84c1.72-1.72,4.08-3.81,7.07-6.3
	c-5.91,1.56-12.76,4.29-20.56,8.22c-0.69,0.35-1.21,0.55-1.55,0.59c-1.07,0.12-1.67-0.41-1.81-1.6c-0.15-1.3,3.13-3.25,9.84-5.85
	c4.68-1.84,9.04-3.33,13.07-4.46c4.96-1.38,9.7-2.33,14.23-2.86c5.14-0.6,8.99-0.32,11.54,0.83c2.85,1.27,4.49,3.73,4.92,7.38
	c0.39,3.37-2.35,7.12-8.22,11.25c-6.8,4.76-16.16,7.97-28.09,9.63c0.92,1.17,2.43,4.03,4.55,8.59c1.94,4.13,3.23,6.41,3.86,6.87
	c0.63,0.46,1.85,0.58,3.65,0.37c0.38-0.04,0.64,0.02,0.82,0.17c0.02,0.47-0.68,0.98-2.11,1.52c-1.19,0.45-2.19,0.73-3.02,0.83
	c-1.08,0.13-2.18-0.01-3.32-0.4c-1.13-0.39-2.03-1.42-2.68-3.08l-2.65-6.24c-1.04-2.37-2.09-4.39-3.12-6.07
	c-0.42-0.63-1.12-1.43-2.11-2.41c-1.29-0.73-1.95-1.19-1.97-1.37c-0.07-0.59,1.26-1.05,3.99-1.37c1.02-0.12,1.87,0.08,2.6,0.6
	c4.58-0.53,10.05-2.15,16.41-4.85c6.36-2.7,10.99-5.39,13.9-8.08c3.51-3.26,5.17-5.86,4.94-7.83c-0.38-3.24-4.38-4.4-12-3.51
	C301.27,82.44,297.64,83.12,293.39,84.14z M195,128.64c4.53-0.96,8.19-2.32,10.97-4.07c2.8-1.76,4.13-3.14,4.02-4.12
	c-0.06-0.51-0.53-0.73-1.42-0.62C205.23,120.22,200.71,123.16,195,128.64z M195.64,122.12l-11.41,8.98l-7.82,5.84
	c-3.76,2.52-6.93,3.94-9.5,4.24c-0.36,0.04-0.57-0.08-0.6-0.39c-0.05-0.4,0.24-0.7,0.82-0.88c3.96-1.17,9.14-4.24,15.53-9.24
	l12.15-9.48c2.78-2.18,7.2-6.37,13.24-12.57l11.59-12.2c1.82-2.01,3.14-3.05,3.97-3.15c1.07-0.12,1.64,0.2,1.74,0.99
	c0.11,0.98-1.01,2.81-3.37,5.48l-5.14,5.39l-16.52,17.55c4.27-2.9,7.47-4.48,9.61-4.73c2.49-0.29,3.84,0.46,4.05,2.24
	c0.23,2.01-2,4.01-6.67,6.01c-3.8,1.61-7.4,2.64-10.82,3.06c1.34,1.78,3.03,3.77,5.09,5.99c0.64,0.45,1.64,0.6,2.98,0.44
	c0.42-0.05,0.66,0.1,0.7,0.44c0.06,0.48-1.12,0.86-3.52,1.14c-1.18,0.14-2.2,0.05-3.08-0.28c-0.81-0.29-2.77-2.31-5.87-6.04
	l-4.11,4.57c-2.32,2.5-3.72,3.77-4.21,3.83c-1.32,0.15-2.04-0.33-2.17-1.44c-0.08-0.65,2.04-3.38,6.36-8.19L195.64,122.12z
	 M167.84,125.98c-0.21-0.72-0.33-1.16-0.34-1.3c-0.07-0.61,0.81-1.67,2.63-3.19c1.83-1.52,3.11-2.32,3.85-2.41
	c0.71-0.08,1.08,0.12,1.13,0.59c0.05,0.41-0.27,1.13-0.92,2.17c3.47-0.4,5.32,0.4,5.56,2.4c0.19,1.59-1.75,4.36-5.8,8.35
	c-4.05,3.98-6.05,6.19-6,6.61c0.05,0.41,0.36,0.6,0.94,0.57l1.5-0.21c0.42-0.05,0.66,0.11,0.71,0.48c0.05,0.47-0.81,0.81-2.6,1.02
	c-2.29,0.27-3.52-0.34-3.69-1.82c-0.17-1.45,0.75-3.4,2.77-5.84c1.24-1.52,3.14-3.46,5.68-5.8c2.08-1.9,3.11-2.92,3.09-3.08
	c-0.04-0.33-0.33-0.47-0.84-0.41c-0.47,0.05-1.33,0.28-2.59,0.7c-1.27,0.42-2.01,0.72-2.25,0.91
	c-13.04,11.53-22.04,17.59-26.98,18.17c-0.36,0.04-0.57-0.08-0.6-0.39c-0.05-0.4,0.33-0.71,1.15-0.92c0.99-0.25,2.28-0.75,3.86-1.51
	c2.38-1.09,5.86-3.44,10.42-7.03C162.58,130.87,165.68,128.18,167.84,125.98z M149.81,126.07c-1.82,0.21-5.32,2.63-10.54,7.23
	c-5.21,4.62-7.75,7.59-7.59,8.91c0.07,0.61,0.5,0.87,1.3,0.78c1.76-0.21,5.28-2.57,10.58-7.12c5.3-4.55,7.87-7.49,7.71-8.84
	C151.19,126.28,150.71,125.96,149.81,126.07z M128.13,138.58c-7.61,5.64-12.96,8.64-16.05,9c-0.36,0.04-0.57-0.08-0.6-0.39
	c-0.05-0.42,0.28-0.73,1.01-0.91c2.85-0.67,6.63-2.76,11.37-6.24l5.53-4.06l8.86-6.63c4.09-2.69,7.68-4.21,10.77-4.57
	c2.29-0.27,3.67,0.42,4.15,2.06c1.11-0.95,1.91-1.45,2.37-1.5c1.02-0.12,1.57,0.11,1.64,0.69c0.09,0.79-2,3.45-6.27,8
	c-4.27,4.55-6.37,7.15-6.29,7.81c0.05,0.46,0.61,0.63,1.68,0.53c1.07-0.1,1.62,0.03,1.67,0.4c0.05,0.46-0.97,0.81-3.09,1.06
	c-2.09,0.24-3.21-0.3-3.37-1.61c-0.12-1.05,0.53-2.64,1.95-4.77l-5.28,4.21c-2.61,1.86-4.75,2.88-6.4,3.08
	c-2.63,0.31-4.07-0.51-4.29-2.46C127.37,141.18,127.57,139.96,128.13,138.58z M102.99,125.51c19.39-18.13,32.04-27.54,37.99-28.24
	c2.48-0.29,3.82,0.42,4.02,2.14c0.19,1.59-0.49,3.45-2.02,5.6c-1.16,1.54-8.45,8.79-21.86,21.74
	c-11.16,11.3-16.63,17.82-16.43,19.53c0.07,0.59,0.72,0.85,1.95,0.78c1.23-0.07,1.86-0.01,1.88,0.19c0.07,0.63-0.83,1.05-2.7,1.27
	c-2.65,0.31-4.07-0.44-4.28-2.25c-0.39-3.36,4.59-10.34,14.94-20.95c3.63-3.73,10.57-10.32,20.82-19.79
	c3.45-3.22,5.11-5.39,4.98-6.51c-0.05-0.42-0.37-0.61-0.95-0.54c-2.1,0.25-7.7,3.91-16.81,10.99c-7.27,5.67-12.66,10.14-16.19,13.4
	c-3.4,3.13-7.85,7.52-13.33,13.17c-9.86,10.18-14.95,15.28-15.3,15.32c-0.45,0.05-1.01-0.1-1.67-0.45
	c-0.66-0.35-1.02-0.69-1.06-1.02c-0.1-0.87,5.72-7.67,17.44-20.4c11.72-12.73,17.49-19.99,17.31-21.78c-0.05-0.45-0.39-0.64-1-0.57
	c-1.55,0.18-5.39,2.44-11.5,6.78c-5.64,4.01-11.75,8.94-18.37,14.79l-17.08,15.61l-5.94,5.89c-3.32,3.28-5.11,4.94-5.4,4.98
	c-0.49,0.06-1.1-0.06-1.88-0.32c-0.86-0.29-1.31-0.6-1.35-0.94c-0.09-0.73,3.35-4.69,10.32-11.85L79,121.92
	c6.91-7.5,10.28-12.03,10.1-13.6c-0.07-0.58-0.49-0.82-1.29-0.73c-2.21,0.26-6.58,2.85-13.11,7.8
	c-4.88,3.72-11.72,10.06-20.51,19.02c-0.54,0.56-1,0.86-1.36,0.9c-0.67,0.08-1.03-0.08-1.07-0.45c-0.07-0.58,2.32-3.42,7.17-8.53
	c3.46-3.62,7.91-7.53,13.36-11.75c7.04-5.43,12.27-8.35,15.64-8.74c2.27-0.27,3.51,0.51,3.72,2.31c0.36,3.04-4.41,10.12-14.31,21.24
	c17.31-15.28,28.37-23.2,33.17-23.76c2.27-0.27,3.5,0.45,3.7,2.15C114.53,110.47,110.78,116.37,102.99,125.51z"/>
<path class="st5" d="M488.46,92.94c2.71-1.34,5.52-3.06,8.44-5.15c3.91-2.75,5.78-4.79,5.63-6.12c-0.06-0.54-0.42-0.77-1.1-0.69
	c-2.01,0.23-4.56,1.9-7.68,5C490.98,88.78,489.22,91.1,488.46,92.94z M482.65,95.55c-1.51,0.44-4.27,1.81-8.31,4.09
	c-3.55,2-6.3,3.11-8.24,3.34c-0.36,0.04-0.57-0.08-0.6-0.39c-0.05-0.42,0.31-0.73,1.1-0.92c1.86-0.44,4.39-1.58,7.63-3.42
	c3.57-1.99,6.51-3.32,8.83-4c1.12-2.65,3.73-5.59,7.82-8.84c4.36-3.48,8.19-5.41,11.5-5.79c2.46-0.29,3.77,0.34,3.95,1.86
	c0.23,1.99-2.12,4.48-7.03,7.43c-3.59,2.19-7.34,4.02-11.22,5.47c-0.34,0.75-0.48,1.5-0.39,2.27c0.13,1.14,0.78,1.82,1.94,2.03
	c0.57,0.1,1.63,0.06,3.19-0.07c1.12-0.11,1.69,0.03,1.73,0.41c0.07,0.61-1.79,1.12-5.57,1.57c-4,0.47-6.14-0.56-6.43-3.08
	C482.47,96.91,482.51,96.27,482.65,95.55z M466.91,102.95c-3.35,0.34-5.16-0.63-5.43-2.91c-11.38,13.1-16.91,20.97-16.61,23.6
	c0.11,0.98,0.77,1.41,1.94,1.27c2.81-0.33,6.65-3.5,11.56-9.51C462.35,110.54,465.2,106.39,466.91,102.95z M467.38,101.78
	c1.09-2.21,1.56-4.05,1.39-5.54c-0.12-1.04-0.75-1.49-1.86-1.36c-0.99,0.12-1.91,0.83-2.72,2.14c-0.75,1.2-1.08,2.21-0.98,3.03
	c0.17,1.45,1.31,2.06,3.41,1.82L467.38,101.78z M467.37,87.77l-14.45,11.13c-5.76,4.42-10.27,6.81-13.53,7.19
	c-0.36,0.04-0.57-0.08-0.6-0.39c-0.04-0.38,0.32-0.69,1.1-0.92c1.17-0.32,2.46-0.81,3.83-1.47c2.34-1.04,6.64-3.96,12.92-8.76
	c5.14-3.9,9.36-7.27,12.62-10.1c4.43-3.82,12.72-12,24.83-24.53c1.56-1.61,2.83-2.47,3.81-2.59c1.13-0.13,1.74,0.21,1.84,1.04
	c0.07,0.56-0.16,1.2-0.67,1.92l-6.99,7.25l-8.21,8.36L467.1,93.75c2.16-0.28,3.35,0.54,3.57,2.43c0.4,3.46-2.43,9.14-8.52,17.04
	c-6.31,8.16-11.59,12.49-15.84,12.99c-1.29,0.15-2.35-0.09-3.2-0.72c-0.85-0.62-1.33-1.42-1.44-2.38c-0.13-1.1,0.21-2.56,1.03-4.4
	c1.27-2.87,5.09-8.1,11.44-15.7L467.37,87.77z M440.21,106.07c-3.35,0.34-5.16-0.63-5.43-2.91c-11.38,13.1-16.91,20.97-16.61,23.6
	c0.11,0.98,0.77,1.41,1.94,1.27c2.81-0.33,6.65-3.5,11.56-9.51C435.64,113.66,438.49,109.51,440.21,106.07z M440.67,104.9
	c1.09-2.21,1.56-4.05,1.39-5.54c-0.12-1.04-0.75-1.49-1.86-1.36c-0.99,0.12-1.91,0.83-2.72,2.14c-0.75,1.2-1.08,2.21-0.98,3.03
	c0.17,1.45,1.31,2.06,3.41,1.82L440.67,104.9z M440.66,90.89l-14.45,11.13c-5.76,4.42-10.27,6.81-13.53,7.19
	c-0.36,0.04-0.57-0.08-0.6-0.39c-0.04-0.38,0.32-0.69,1.1-0.92c1.17-0.32,2.46-0.81,3.83-1.47c2.34-1.04,6.64-3.96,12.92-8.76
	c5.14-3.9,9.36-7.27,12.62-10.1c4.43-3.82,12.72-12,24.83-24.53c1.56-1.61,2.83-2.47,3.81-2.59c1.13-0.13,1.74,0.21,1.84,1.04
	c0.07,0.56-0.16,1.2-0.67,1.92l-6.99,7.25l-8.21,8.36l-16.77,17.85c2.16-0.28,3.35,0.54,3.57,2.43c0.4,3.46-2.43,9.14-8.52,17.04
	c-6.31,8.16-11.59,12.49-15.84,12.99c-1.29,0.15-2.35-0.09-3.2-0.72c-0.85-0.62-1.33-1.42-1.44-2.38c-0.13-1.1,0.21-2.56,1.03-4.4
	c1.27-2.87,5.09-8.1,11.44-15.7L440.66,90.89z M413.41,107.03c0.07,0.61,1,0.8,2.8,0.59c0.39-0.05,0.62,0.11,0.66,0.49
	c0.05,0.45-0.94,0.79-2.96,1.03c-2.31,0.27-3.54-0.41-3.73-2.02c-0.22-1.87,2.72-6.2,8.85-12.98l-11.67,8.95
	c-6.9,5.3-12.02,8.15-15.36,8.54c-0.36,0.04-0.57-0.08-0.6-0.39c-0.05-0.42,0.23-0.72,0.83-0.89c1.9-0.49,3.6-1.15,5.11-1.99
	c1.9-1.03,5.87-3.8,11.89-8.28l13.05-10.24c0.59-0.23,1.41-0.41,2.45-0.53c1.05-0.12,1.62,0.25,1.72,1.12
	c0.11,0.94-2.06,3.75-6.5,8.45C415.5,103.58,413.32,106.29,413.41,107.03z M430.95,81.42c-1.46,0.17-2.26-0.29-2.39-1.39
	c-0.11-0.93,0.55-1.84,1.95-2.75c1.27-0.83,2.56-1.32,3.91-1.48c1.58-0.19,2.46,0.36,2.61,1.64c0.11,0.91-0.6,1.8-2.11,2.62
	C433.63,80.81,432.3,81.27,430.95,81.42z M427.85,68.23c-1.19,0.14-5.51,4.1-12.97,11.87c-7.1,7.43-11.58,12.5-13.44,15.19
	c18.61-14.2,27.71-23.08,27.3-26.62C428.71,68.31,428.4,68.16,427.85,68.23z M392.33,100.63l-10.6,7.55
	c-5.76,3.77-10.07,5.82-12.9,6.15c-0.36,0.04-0.56-0.07-0.6-0.34c-0.05-0.42,0.48-0.76,1.6-1.03c1.27-0.29,2.71-0.86,4.31-1.72
	c1.93-1.03,5.17-3.13,9.72-6.34c3.33-2.29,6.83-4.81,10.52-7.54c3.98-5.51,9.62-11.65,16.94-18.41c8.12-7.51,13.7-11.44,16.73-11.79
	c1.41-0.17,2.18,0.3,2.31,1.4c0.33,2.81-3.66,7.83-11.99,15.07c-5.27,4.56-11.06,9.04-17.36,13.46c-1.45,1.03-3.19,3.06-5.19,6.08
	c-2.09,3.09-3.06,5.22-2.93,6.39c0.07,0.56,0.96,0.73,2.69,0.53c0.41-0.05,0.63,0.1,0.67,0.44c0.05,0.43-0.74,0.75-2.37,0.94
	c-2.57,0.3-3.97-0.49-4.19-2.35C389.48,107.3,390.36,104.46,392.33,100.63z M383.18,96.74c-0.86,0.39-2.05,1.26-3.54,2.62
	c-1.63,1.44-2.41,2.4-2.35,2.88l0.41,0.22c0.83-0.1,1.91-0.92,3.24-2.45C382.07,98.69,382.82,97.6,383.18,96.74z M363.41,105.49
	l-8.96,6.62c-4.67,3.15-8.3,4.87-10.9,5.18c-0.36,0.04-0.56-0.07-0.6-0.36c-0.05-0.42,0.28-0.74,1-0.94
	c2.81-0.73,6.48-2.74,11.05-5.99l11.91-8.91c6.51-4.99,11.64-7.7,15.41-8.14c1.99-0.23,3.06,0.22,3.2,1.36
	c0.69-0.08,1.06,0.1,1.11,0.53c0.04,0.37-0.31,0.6-1.06,0.71c-0.43,1.66-1.4,3.37-2.91,5.14c-1.82,2.11-3.67,3.28-5.55,3.5
	c-1.11,0.13-1.71-0.17-1.79-0.9c-0.12-1.05,0.91-2.54,3.12-4.49c1.96-1.74,3.74-2.95,5.37-3.66l0.05-0.38
	c-0.04-0.31-0.27-0.43-0.7-0.38c-2.01,0.23-5.45,2.64-10.31,7.23c-4.88,4.59-7.23,7.67-7.04,9.24c0.12,0.99,0.79,1.62,2.02,1.88
	c0.62,0.14,1.75,0.15,3.38,0.08c1.19-0.05,1.81,0.09,1.84,0.39c0.05,0.47-1,0.84-3.15,1.09c-4.81,0.56-7.4-0.74-7.77-3.9
	C361.98,109.18,362.41,107.54,363.41,105.49z M355.92,93.67l-16.54,2.42c-0.93,0.11-1.4-0.02-1.44-0.39
	c-0.03-0.3,0.69-0.61,2.18-0.95c2.09-0.49,5.04-1.05,8.86-1.68c4.25-0.67,7.22-1.19,8.93-1.54l5.9-6.48
	c3.17-3.44,5.13-5.2,5.87-5.29c0.93-0.11,1.43,0.26,1.53,1.11c0.11,0.91-2.33,4.24-7.32,9.96c3.18-0.53,5.84-0.93,7.94-1.17
	c1.4-0.16,2.13-0.04,2.17,0.36c0.05,0.45-1.61,0.94-4.98,1.5l-6.94,0.98l-9.12,10.52c-5.71,6.88-8.5,10.91-8.36,12.09
	c0.07,0.56,0.6,0.79,1.61,0.68c1.01-0.11,1.53,0.02,1.57,0.4c0.05,0.45-0.6,0.75-1.94,0.91c-2.73,0.32-4.19-0.32-4.37-1.93
	c-0.15-1.27,0.53-3.19,2.03-5.78l3.43-5.35l-12.7,9.39c-5.3,3.92-9.47,6.07-12.54,6.42c-0.36,0.04-0.57-0.08-0.6-0.39
	c-0.05-0.4,0.24-0.7,0.83-0.89c1.02-0.28,2.55-0.85,4.6-1.72c1.96-1.02,6.25-3.96,12.86-8.83c4.89-3.57,7.98-5.88,9.22-6.93
	C350.81,99.21,353.26,96.73,355.92,93.67z M327.79,102.03c-1.82,0.21-5.32,2.63-10.54,7.23c-5.22,4.62-7.75,7.59-7.59,8.91
	c0.07,0.61,0.5,0.87,1.3,0.78c1.76-0.2,5.28-2.57,10.58-7.12c5.3-4.55,7.87-7.49,7.71-8.84
	C329.17,102.24,328.68,101.92,327.79,102.03z M306.11,114.54c-7.61,5.64-12.96,8.64-16.05,9c-0.36,0.04-0.57-0.08-0.6-0.39
	c-0.05-0.42,0.28-0.73,1.01-0.91c2.85-0.67,6.62-2.76,11.37-6.24l5.53-4.06l8.86-6.63c4.09-2.69,7.68-4.21,10.77-4.57
	c2.29-0.27,3.67,0.42,4.15,2.06c1.11-0.95,1.91-1.45,2.37-1.5c1.02-0.12,1.57,0.11,1.64,0.69c0.09,0.79-2,3.45-6.27,8
	c-4.27,4.55-6.37,7.15-6.29,7.81c0.05,0.46,0.61,0.64,1.68,0.53c1.07-0.1,1.62,0.03,1.67,0.4c0.05,0.46-0.97,0.81-3.09,1.06
	c-2.09,0.24-3.21-0.3-3.37-1.61c-0.12-1.05,0.53-2.64,1.95-4.77l-5.28,4.21c-2.61,1.86-4.75,2.88-6.4,3.08
	c-2.63,0.31-4.07-0.51-4.29-2.47C305.35,117.14,305.55,115.92,306.11,114.54z M292.44,81c0.19,0.52,0.3,0.89,0.32,1.09
	c0.04,0.35-1.38,1.92-4.25,4.68l-5.24,4.96c-8.99,9.01-17.09,17.58-24.28,25.69c-3.54,3.99-6.17,7.15-7.92,9.49
	c-1.25,1.69-2.34,2.58-3.25,2.69c-1.55,0.18-2.39-0.28-2.51-1.37c-0.27-2.3,11.69-15.58,35.87-39.84c1.72-1.72,4.08-3.81,7.07-6.3
	c-5.91,1.56-12.76,4.29-20.56,8.22c-0.69,0.35-1.21,0.55-1.55,0.59c-1.07,0.12-1.67-0.41-1.81-1.6c-0.15-1.3,3.13-3.25,9.84-5.85
	c4.68-1.84,9.04-3.33,13.07-4.46c4.96-1.38,9.7-2.33,14.23-2.86c5.14-0.6,8.99-0.32,11.54,0.83c2.85,1.27,4.49,3.73,4.92,7.38
	c0.39,3.37-2.35,7.12-8.22,11.25c-6.8,4.76-16.16,7.97-28.09,9.63c0.92,1.17,2.43,4.03,4.55,8.59c1.94,4.13,3.23,6.41,3.86,6.87
	c0.63,0.46,1.85,0.58,3.65,0.37c0.38-0.04,0.64,0.02,0.81,0.17c0.02,0.47-0.68,0.98-2.11,1.52c-1.19,0.45-2.19,0.73-3.02,0.83
	c-1.08,0.13-2.18-0.01-3.32-0.4c-1.13-0.39-2.03-1.42-2.68-3.08l-2.65-6.24c-1.04-2.37-2.09-4.39-3.12-6.07
	c-0.42-0.63-1.12-1.43-2.11-2.41c-1.29-0.73-1.95-1.19-1.97-1.37c-0.07-0.59,1.26-1.05,3.99-1.37c1.02-0.12,1.87,0.08,2.6,0.6
	c4.58-0.53,10.05-2.15,16.41-4.85c6.36-2.7,10.99-5.39,13.9-8.08c3.51-3.26,5.16-5.86,4.94-7.83c-0.38-3.24-4.38-4.4-12-3.51
	C300.32,79.3,296.7,79.98,292.44,81z M194.06,125.5c4.53-0.96,8.19-2.32,10.97-4.07c2.8-1.76,4.13-3.14,4.02-4.12
	c-0.06-0.51-0.53-0.73-1.42-0.62C204.28,117.08,199.76,120.02,194.06,125.5z M194.7,118.97l-11.41,8.98l-7.82,5.84
	c-3.76,2.52-6.93,3.94-9.5,4.24c-0.36,0.04-0.57-0.08-0.6-0.39c-0.05-0.4,0.24-0.7,0.82-0.88c3.96-1.17,9.14-4.24,15.53-9.24
	l12.15-9.48c2.78-2.18,7.2-6.37,13.24-12.57l11.59-12.2c1.82-2.01,3.14-3.06,3.97-3.15c1.07-0.12,1.64,0.2,1.74,0.99
	c0.12,0.98-1.01,2.81-3.37,5.48l-5.14,5.39l-16.52,17.55c4.27-2.9,7.47-4.48,9.61-4.73c2.49-0.29,3.84,0.46,4.04,2.24
	c0.24,2.01-2,4.01-6.67,6.01c-3.8,1.61-7.4,2.64-10.82,3.06c1.34,1.78,3.03,3.77,5.09,5.99c0.64,0.45,1.64,0.6,2.98,0.44
	c0.42-0.05,0.66,0.1,0.7,0.44c0.06,0.48-1.12,0.86-3.52,1.14c-1.18,0.14-2.2,0.05-3.08-0.28c-0.81-0.29-2.77-2.31-5.87-6.04
	l-4.11,4.57c-2.32,2.5-3.72,3.77-4.21,3.83c-1.32,0.15-2.04-0.33-2.17-1.44c-0.08-0.65,2.04-3.38,6.36-8.19L194.7,118.97z
	 M166.9,122.83c-0.21-0.72-0.33-1.16-0.34-1.3c-0.07-0.61,0.81-1.67,2.63-3.19c1.83-1.52,3.11-2.32,3.85-2.41
	c0.71-0.08,1.08,0.12,1.13,0.59c0.05,0.41-0.27,1.13-0.92,2.17c3.47-0.4,5.32,0.4,5.56,2.4c0.19,1.59-1.75,4.36-5.8,8.35
	c-4.05,3.98-6.05,6.19-6,6.61c0.05,0.41,0.36,0.6,0.94,0.57l1.5-0.21c0.42-0.05,0.66,0.11,0.71,0.49c0.05,0.47-0.81,0.81-2.6,1.02
	c-2.29,0.27-3.52-0.34-3.69-1.82c-0.17-1.45,0.75-3.4,2.77-5.84c1.24-1.52,3.14-3.46,5.68-5.8c2.08-1.9,3.11-2.92,3.09-3.08
	c-0.04-0.33-0.33-0.47-0.84-0.41c-0.47,0.05-1.33,0.28-2.59,0.7c-1.27,0.41-2.01,0.72-2.25,0.91
	c-13.04,11.53-22.04,17.59-26.98,18.17c-0.36,0.04-0.57-0.08-0.6-0.39c-0.05-0.4,0.33-0.71,1.15-0.92c0.99-0.25,2.28-0.75,3.86-1.51
	c2.38-1.09,5.86-3.44,10.42-7.03C161.64,127.73,164.74,125.03,166.9,122.83z M148.87,122.93c-1.82,0.21-5.32,2.63-10.54,7.23
	c-5.22,4.62-7.75,7.59-7.59,8.91c0.07,0.61,0.5,0.87,1.3,0.78c1.76-0.21,5.28-2.57,10.58-7.12c5.3-4.55,7.87-7.49,7.71-8.84
	C150.24,123.14,149.76,122.82,148.87,122.93z M127.18,135.43c-7.61,5.64-12.96,8.64-16.05,9c-0.36,0.04-0.57-0.08-0.6-0.39
	c-0.05-0.42,0.28-0.73,1.01-0.91c2.85-0.67,6.63-2.76,11.37-6.24l5.53-4.06l8.86-6.63c4.09-2.69,7.68-4.21,10.77-4.57
	c2.29-0.27,3.67,0.42,4.15,2.06c1.11-0.95,1.91-1.45,2.37-1.5c1.02-0.12,1.57,0.11,1.64,0.69c0.09,0.79-2,3.45-6.27,8
	c-4.27,4.55-6.37,7.15-6.29,7.81c0.05,0.46,0.61,0.63,1.68,0.53c1.07-0.1,1.63,0.03,1.67,0.4c0.05,0.46-0.97,0.81-3.09,1.06
	c-2.09,0.24-3.21-0.3-3.37-1.61c-0.12-1.05,0.53-2.64,1.95-4.77l-5.28,4.21c-2.61,1.86-4.75,2.88-6.4,3.08
	c-2.63,0.31-4.07-0.51-4.29-2.46C126.42,138.04,126.63,136.82,127.18,135.43z M102.05,122.37c19.39-18.13,32.04-27.54,37.99-28.24
	c2.48-0.29,3.82,0.42,4.02,2.14c0.19,1.59-0.49,3.45-2.02,5.6c-1.16,1.54-8.45,8.79-21.86,21.74
	c-11.16,11.3-16.63,17.82-16.43,19.53c0.07,0.59,0.72,0.85,1.95,0.78c1.23-0.07,1.86-0.01,1.88,0.19c0.07,0.63-0.83,1.05-2.7,1.27
	c-2.65,0.31-4.07-0.44-4.28-2.25c-0.39-3.36,4.59-10.34,14.94-20.95c3.63-3.73,10.57-10.32,20.82-19.79
	c3.46-3.22,5.11-5.39,4.98-6.51c-0.05-0.42-0.37-0.61-0.95-0.54c-2.1,0.25-7.7,3.91-16.81,10.99c-7.27,5.67-12.66,10.13-16.19,13.4
	c-3.4,3.13-7.85,7.52-13.33,13.17c-9.86,10.18-14.95,15.28-15.3,15.32c-0.45,0.05-1.01-0.1-1.67-0.45
	c-0.66-0.35-1.02-0.69-1.06-1.02c-0.1-0.87,5.72-7.67,17.44-20.4c11.72-12.73,17.49-19.99,17.31-21.78c-0.05-0.45-0.39-0.64-1-0.57
	c-1.55,0.18-5.39,2.44-11.5,6.78c-5.64,4.01-11.75,8.94-18.37,14.79l-17.08,15.61l-5.94,5.89c-3.32,3.28-5.11,4.94-5.4,4.98
	c-0.49,0.06-1.1-0.06-1.88-0.32c-0.86-0.29-1.31-0.6-1.35-0.94c-0.09-0.73,3.35-4.69,10.32-11.85l19.47-20.13
	c6.91-7.51,10.28-12.04,10.1-13.6c-0.07-0.58-0.49-0.82-1.29-0.73c-2.21,0.26-6.58,2.85-13.11,7.8
	c-4.87,3.72-11.72,10.06-20.51,19.02c-0.54,0.56-1,0.86-1.36,0.9c-0.67,0.08-1.03-0.08-1.07-0.45c-0.07-0.58,2.32-3.42,7.17-8.53
	c3.46-3.62,7.91-7.53,13.36-11.75c7.04-5.43,12.27-8.35,15.64-8.74c2.27-0.27,3.51,0.51,3.72,2.31c0.36,3.04-4.41,10.12-14.31,21.24
	c17.31-15.28,28.37-23.2,33.17-23.76c2.27-0.27,3.5,0.45,3.7,2.15C113.58,107.32,109.84,113.23,102.05,122.37z"/>
<path class="st6" d="M488.47,92.93c2.71-1.34,5.53-3.06,8.44-5.15c3.91-2.75,5.78-4.79,5.63-6.12c-0.06-0.54-0.42-0.77-1.1-0.69
	c-2.01,0.23-4.56,1.9-7.68,5C490.99,88.78,489.22,91.1,488.47,92.93 M482.65,95.55c-1.51,0.44-4.27,1.81-8.31,4.09
	c-3.55,2-6.3,3.11-8.24,3.34c-0.36,0.04-0.57-0.08-0.6-0.39c-0.05-0.42,0.31-0.73,1.1-0.92c1.86-0.44,4.39-1.58,7.63-3.42
	c3.57-1.99,6.51-3.32,8.83-4c1.12-2.65,3.73-5.59,7.82-8.84c4.36-3.48,8.19-5.41,11.5-5.79c2.46-0.29,3.77,0.34,3.95,1.86
	c0.23,1.99-2.12,4.48-7.03,7.43c-3.59,2.19-7.34,4.02-11.22,5.47c-0.34,0.75-0.48,1.5-0.39,2.27c0.13,1.14,0.78,1.82,1.94,2.03
	c0.57,0.1,1.63,0.06,3.19-0.07c1.12-0.11,1.69,0.03,1.73,0.41c0.07,0.61-1.79,1.12-5.57,1.57c-4,0.47-6.14-0.56-6.43-3.08
	C482.48,96.91,482.51,96.27,482.65,95.55z M466.92,102.95c-3.35,0.34-5.16-0.63-5.43-2.91c-11.38,13.1-16.91,20.97-16.61,23.6
	c0.11,0.98,0.77,1.41,1.94,1.27c2.81-0.33,6.65-3.5,11.56-9.51C462.35,110.54,465.21,106.39,466.92,102.95z M467.39,101.78
	c1.09-2.21,1.56-4.05,1.39-5.54c-0.12-1.04-0.75-1.49-1.86-1.36c-0.99,0.12-1.91,0.83-2.72,2.14c-0.75,1.2-1.08,2.21-0.98,3.03
	c0.17,1.45,1.31,2.06,3.41,1.82L467.39,101.78z M467.37,87.77L452.92,98.9c-5.76,4.42-10.27,6.81-13.53,7.19
	c-0.36,0.04-0.57-0.08-0.6-0.39c-0.04-0.38,0.32-0.69,1.1-0.92c1.17-0.32,2.46-0.81,3.83-1.47c2.34-1.04,6.64-3.96,12.92-8.76
	c5.14-3.9,9.36-7.27,12.62-10.1c4.43-3.82,12.72-12,24.83-24.53c1.56-1.61,2.83-2.47,3.81-2.59c1.13-0.13,1.74,0.21,1.84,1.04
	c0.07,0.56-0.16,1.2-0.67,1.92l-6.99,7.25l-8.21,8.36L467.1,93.75c2.16-0.28,3.35,0.54,3.57,2.43c0.4,3.46-2.43,9.14-8.52,17.04
	c-6.31,8.16-11.59,12.49-15.84,12.99c-1.29,0.15-2.35-0.09-3.2-0.72c-0.85-0.62-1.33-1.42-1.44-2.38c-0.13-1.1,0.21-2.56,1.03-4.4
	c1.27-2.87,5.09-8.1,11.44-15.71L467.37,87.77z M440.21,106.07c-3.35,0.34-5.16-0.63-5.43-2.91c-11.38,13.1-16.91,20.97-16.61,23.6
	c0.11,0.98,0.77,1.41,1.94,1.27c2.81-0.33,6.65-3.5,11.56-9.51C435.65,113.66,438.5,109.51,440.21,106.07z M440.68,104.9
	c1.09-2.21,1.56-4.05,1.39-5.54c-0.12-1.04-0.75-1.49-1.86-1.36c-0.99,0.12-1.91,0.83-2.72,2.14c-0.75,1.2-1.08,2.21-0.98,3.03
	c0.17,1.45,1.31,2.06,3.41,1.82L440.68,104.9z M440.67,90.89l-14.45,11.13c-5.76,4.42-10.27,6.81-13.53,7.19
	c-0.36,0.04-0.57-0.08-0.6-0.39c-0.04-0.38,0.32-0.69,1.1-0.92c1.17-0.32,2.46-0.81,3.83-1.47c2.34-1.04,6.64-3.96,12.92-8.76
	c5.14-3.9,9.36-7.27,12.62-10.1c4.43-3.82,12.72-12,24.83-24.53c1.56-1.61,2.83-2.47,3.81-2.59c1.13-0.13,1.74,0.21,1.84,1.04
	c0.07,0.56-0.16,1.2-0.67,1.92l-6.99,7.25l-8.21,8.36l-16.77,17.85c2.16-0.28,3.35,0.54,3.57,2.43c0.4,3.46-2.43,9.14-8.52,17.04
	c-6.31,8.16-11.59,12.49-15.84,12.99c-1.29,0.15-2.35-0.09-3.2-0.72c-0.85-0.62-1.33-1.42-1.44-2.38c-0.13-1.1,0.21-2.56,1.03-4.4
	c1.27-2.87,5.09-8.1,11.44-15.71L440.67,90.89z M413.41,107.03c0.07,0.61,1,0.8,2.8,0.59c0.39-0.05,0.62,0.11,0.66,0.49
	c0.05,0.45-0.94,0.79-2.96,1.03c-2.31,0.27-3.55-0.41-3.73-2.02c-0.22-1.87,2.72-6.2,8.85-12.98l-11.67,8.95
	c-6.9,5.3-12.02,8.15-15.36,8.54c-0.36,0.04-0.57-0.08-0.6-0.39c-0.05-0.42,0.23-0.72,0.83-0.89c1.9-0.49,3.6-1.15,5.11-1.99
	c1.9-1.03,5.87-3.8,11.89-8.28l13.05-10.24c0.59-0.23,1.41-0.41,2.45-0.53c1.05-0.12,1.62,0.25,1.72,1.12
	c0.11,0.94-2.06,3.75-6.5,8.45C415.5,103.58,413.32,106.29,413.41,107.03z M430.96,81.42c-1.46,0.17-2.26-0.29-2.39-1.39
	c-0.11-0.93,0.55-1.84,1.95-2.75c1.27-0.83,2.56-1.32,3.91-1.48c1.58-0.19,2.46,0.36,2.61,1.64c0.11,0.91-0.6,1.8-2.11,2.62
	C433.64,80.81,432.31,81.26,430.96,81.42z M427.86,68.23c-1.19,0.14-5.51,4.1-12.97,11.87c-7.1,7.43-11.58,12.5-13.44,15.19
	c18.61-14.2,27.72-23.08,27.3-26.62C428.71,68.31,428.41,68.16,427.86,68.23z M392.33,100.63l-10.6,7.55
	c-5.76,3.77-10.07,5.82-12.9,6.15c-0.36,0.04-0.57-0.07-0.6-0.34c-0.05-0.42,0.48-0.76,1.6-1.03c1.27-0.29,2.71-0.86,4.31-1.72
	c1.93-1.03,5.17-3.13,9.72-6.34c3.33-2.29,6.83-4.81,10.52-7.54c3.98-5.51,9.62-11.65,16.94-18.41c8.12-7.51,13.7-11.44,16.73-11.79
	c1.41-0.16,2.18,0.3,2.31,1.4c0.33,2.81-3.66,7.83-11.99,15.07c-5.27,4.56-11.06,9.04-17.36,13.46c-1.45,1.03-3.19,3.06-5.19,6.08
	c-2.09,3.09-3.06,5.22-2.93,6.39c0.07,0.56,0.96,0.73,2.69,0.53c0.41-0.05,0.63,0.1,0.67,0.44c0.05,0.43-0.74,0.75-2.37,0.94
	c-2.57,0.3-3.97-0.49-4.18-2.35C389.49,107.3,390.36,104.46,392.33,100.63z M383.18,96.74c-0.86,0.39-2.05,1.26-3.54,2.62
	c-1.63,1.44-2.41,2.4-2.35,2.88l0.41,0.22c0.83-0.1,1.91-0.92,3.24-2.45C382.07,98.69,382.82,97.6,383.18,96.74z M363.41,105.49
	l-8.96,6.62c-4.67,3.15-8.3,4.87-10.9,5.18c-0.36,0.04-0.56-0.07-0.6-0.36c-0.05-0.42,0.28-0.74,1-0.94
	c2.81-0.73,6.48-2.74,11.05-5.99l11.91-8.91c6.51-4.99,11.64-7.7,15.41-8.14c1.99-0.23,3.06,0.22,3.2,1.36
	c0.69-0.08,1.06,0.1,1.11,0.53c0.04,0.37-0.31,0.6-1.06,0.71c-0.43,1.66-1.4,3.37-2.91,5.14c-1.82,2.11-3.67,3.28-5.55,3.5
	c-1.11,0.13-1.7-0.17-1.79-0.9c-0.12-1.05,0.91-2.54,3.12-4.49c1.96-1.74,3.74-2.95,5.37-3.66l0.05-0.38
	c-0.04-0.31-0.27-0.43-0.7-0.38c-2.01,0.23-5.45,2.64-10.32,7.23c-4.88,4.59-7.23,7.67-7.04,9.24c0.12,0.99,0.79,1.62,2.02,1.89
	c0.62,0.14,1.75,0.15,3.38,0.08c1.19-0.05,1.81,0.09,1.84,0.39c0.05,0.47-1,0.84-3.15,1.09c-4.81,0.56-7.4-0.73-7.77-3.9
	C361.98,109.18,362.41,107.54,363.41,105.49z M355.93,93.66l-16.54,2.42c-0.93,0.11-1.4-0.02-1.44-0.39
	c-0.03-0.3,0.69-0.61,2.18-0.95c2.09-0.49,5.04-1.05,8.86-1.68c4.25-0.67,7.22-1.19,8.93-1.54l5.9-6.48
	c3.17-3.44,5.13-5.2,5.87-5.29c0.93-0.11,1.43,0.26,1.53,1.11c0.11,0.91-2.33,4.24-7.33,9.96c3.18-0.53,5.84-0.93,7.94-1.17
	c1.4-0.16,2.13-0.04,2.17,0.36c0.05,0.45-1.61,0.94-4.98,1.5l-6.94,0.98l-9.12,10.52c-5.71,6.88-8.5,10.91-8.36,12.09
	c0.07,0.56,0.6,0.79,1.61,0.68c1.01-0.11,1.53,0.02,1.57,0.4c0.05,0.45-0.6,0.75-1.94,0.91c-2.73,0.32-4.19-0.32-4.37-1.93
	c-0.15-1.27,0.53-3.19,2.03-5.78l3.43-5.35l-12.7,9.39c-5.3,3.92-9.47,6.07-12.54,6.42c-0.36,0.04-0.57-0.08-0.6-0.39
	c-0.05-0.4,0.24-0.7,0.83-0.89c1.02-0.28,2.55-0.85,4.6-1.72c1.96-1.02,6.25-3.96,12.86-8.83c4.89-3.57,7.98-5.88,9.22-6.93
	C350.82,99.21,353.26,96.73,355.93,93.66z M327.8,102.02c-1.82,0.21-5.32,2.63-10.54,7.23c-5.22,4.62-7.75,7.59-7.59,8.91
	c0.07,0.61,0.5,0.87,1.3,0.78c1.76-0.2,5.28-2.57,10.58-7.12c5.3-4.55,7.87-7.49,7.71-8.84
	C329.17,102.23,328.69,101.92,327.8,102.02z M306.11,114.53c-7.61,5.64-12.96,8.64-16.05,9c-0.36,0.04-0.57-0.08-0.6-0.39
	c-0.05-0.42,0.28-0.73,1.01-0.91c2.85-0.67,6.62-2.76,11.37-6.24l5.53-4.06l8.86-6.63c4.09-2.69,7.68-4.21,10.77-4.57
	c2.29-0.27,3.67,0.42,4.15,2.06c1.11-0.95,1.91-1.45,2.37-1.5c1.02-0.12,1.57,0.11,1.64,0.69c0.09,0.79-2,3.45-6.27,8
	c-4.27,4.55-6.37,7.15-6.29,7.81c0.05,0.46,0.61,0.64,1.68,0.53c1.07-0.1,1.62,0.03,1.67,0.4c0.05,0.46-0.97,0.81-3.09,1.06
	c-2.09,0.24-3.21-0.3-3.37-1.61c-0.12-1.05,0.53-2.63,1.95-4.77l-5.28,4.21c-2.61,1.86-4.75,2.88-6.4,3.08
	c-2.63,0.31-4.07-0.51-4.29-2.47C305.35,117.14,305.56,115.92,306.11,114.53z M292.45,81c0.19,0.52,0.3,0.89,0.32,1.09
	c0.04,0.35-1.38,1.92-4.25,4.68l-5.24,4.96c-8.99,9.01-17.09,17.58-24.28,25.69c-3.54,3.99-6.17,7.15-7.92,9.49
	c-1.25,1.69-2.34,2.58-3.25,2.69c-1.55,0.18-2.39-0.28-2.51-1.37c-0.27-2.3,11.69-15.58,35.87-39.85c1.72-1.72,4.08-3.81,7.07-6.3
	c-5.91,1.56-12.76,4.29-20.56,8.22c-0.69,0.35-1.21,0.55-1.55,0.59c-1.07,0.12-1.67-0.41-1.81-1.6c-0.15-1.3,3.13-3.25,9.84-5.85
	c4.68-1.84,9.04-3.33,13.07-4.46c4.96-1.38,9.7-2.33,14.23-2.86c5.14-0.6,8.99-0.32,11.54,0.83c2.85,1.27,4.49,3.73,4.92,7.38
	c0.39,3.37-2.35,7.12-8.22,11.25c-6.8,4.76-16.16,7.97-28.09,9.63c0.92,1.17,2.43,4.03,4.55,8.59c1.94,4.13,3.23,6.41,3.86,6.87
	c0.63,0.46,1.85,0.58,3.65,0.37c0.38-0.04,0.64,0.02,0.81,0.17c0.02,0.47-0.68,0.98-2.11,1.52c-1.19,0.45-2.19,0.73-3.02,0.83
	c-1.08,0.13-2.18-0.01-3.32-0.4c-1.13-0.39-2.03-1.42-2.68-3.08l-2.65-6.24c-1.04-2.37-2.09-4.39-3.12-6.07
	c-0.42-0.63-1.12-1.43-2.11-2.41c-1.29-0.73-1.95-1.19-1.97-1.37c-0.07-0.59,1.26-1.05,3.99-1.37c1.02-0.12,1.87,0.08,2.6,0.6
	c4.58-0.53,10.05-2.15,16.41-4.85c6.36-2.7,10.99-5.39,13.9-8.08c3.51-3.26,5.17-5.86,4.94-7.83c-0.38-3.24-4.38-4.4-12-3.51
	C300.33,79.3,296.7,79.98,292.45,81z M194.06,125.5c4.53-0.96,8.19-2.32,10.97-4.07c2.8-1.76,4.13-3.14,4.02-4.12
	c-0.06-0.51-0.53-0.73-1.42-0.62C204.29,117.08,199.77,120.01,194.06,125.5z M194.7,118.97l-11.41,8.98l-7.82,5.84
	c-3.76,2.52-6.93,3.94-9.5,4.24c-0.36,0.04-0.57-0.08-0.6-0.39c-0.05-0.4,0.24-0.7,0.82-0.88c3.96-1.17,9.14-4.24,15.53-9.24
	l12.15-9.48c2.78-2.18,7.2-6.37,13.24-12.57l11.59-12.2c1.82-2.01,3.14-3.06,3.97-3.15c1.07-0.12,1.65,0.2,1.74,0.99
	c0.12,0.98-1.01,2.81-3.37,5.48l-5.14,5.39l-16.52,17.55c4.27-2.9,7.47-4.48,9.61-4.73c2.49-0.29,3.84,0.46,4.05,2.24
	c0.24,2.01-2,4.01-6.67,6.01c-3.8,1.61-7.4,2.64-10.82,3.06c1.34,1.78,3.03,3.77,5.09,5.99c0.64,0.45,1.64,0.6,2.98,0.44
	c0.42-0.05,0.66,0.1,0.7,0.44c0.06,0.48-1.12,0.86-3.52,1.14c-1.18,0.14-2.2,0.05-3.08-0.28c-0.81-0.29-2.77-2.31-5.87-6.04
	l-4.11,4.57c-2.32,2.5-3.72,3.77-4.21,3.83c-1.32,0.15-2.04-0.33-2.17-1.44c-0.08-0.65,2.04-3.38,6.36-8.19L194.7,118.97z
	 M166.9,122.83c-0.21-0.72-0.33-1.16-0.34-1.3c-0.07-0.61,0.81-1.67,2.63-3.19c1.83-1.52,3.11-2.32,3.85-2.41
	c0.71-0.08,1.08,0.12,1.13,0.59c0.05,0.41-0.27,1.13-0.92,2.17c3.47-0.4,5.32,0.4,5.56,2.4c0.19,1.59-1.75,4.36-5.8,8.35
	s-6.05,6.19-6,6.61c0.05,0.41,0.36,0.6,0.94,0.57l1.5-0.21c0.42-0.05,0.66,0.11,0.71,0.49c0.05,0.47-0.81,0.81-2.6,1.02
	c-2.29,0.27-3.52-0.34-3.69-1.82c-0.17-1.45,0.75-3.4,2.77-5.84c1.24-1.52,3.14-3.46,5.68-5.8c2.08-1.9,3.11-2.92,3.09-3.08
	c-0.04-0.33-0.33-0.47-0.84-0.41c-0.47,0.05-1.33,0.28-2.59,0.7c-1.27,0.41-2.01,0.72-2.25,0.91
	c-13.04,11.54-22.04,17.59-26.98,18.17c-0.36,0.04-0.57-0.08-0.6-0.39c-0.05-0.4,0.33-0.71,1.15-0.92c0.99-0.25,2.28-0.75,3.86-1.51
	c2.38-1.09,5.86-3.44,10.42-7.03C161.64,127.72,164.74,125.03,166.9,122.83z M148.87,122.92c-1.82,0.21-5.32,2.63-10.54,7.23
	c-5.22,4.62-7.75,7.59-7.59,8.91c0.07,0.61,0.5,0.87,1.3,0.78c1.76-0.21,5.28-2.57,10.58-7.12c5.3-4.55,7.87-7.49,7.71-8.84
	C150.25,123.13,149.76,122.82,148.87,122.92z M127.19,135.43c-7.61,5.64-12.96,8.64-16.05,9c-0.36,0.04-0.57-0.08-0.6-0.39
	c-0.05-0.42,0.28-0.73,1.01-0.91c2.85-0.67,6.63-2.76,11.37-6.24l5.53-4.06l8.86-6.63c4.09-2.69,7.68-4.21,10.77-4.57
	c2.29-0.27,3.67,0.42,4.15,2.06c1.11-0.95,1.91-1.45,2.37-1.5c1.02-0.12,1.57,0.11,1.64,0.69c0.09,0.79-2,3.45-6.27,8
	c-4.27,4.55-6.37,7.15-6.29,7.81c0.05,0.46,0.61,0.63,1.68,0.53c1.07-0.1,1.63,0.03,1.67,0.4c0.05,0.46-0.97,0.81-3.09,1.06
	c-2.09,0.24-3.21-0.3-3.37-1.61c-0.12-1.05,0.53-2.64,1.95-4.77l-5.28,4.21c-2.61,1.86-4.75,2.88-6.4,3.08
	c-2.63,0.31-4.07-0.51-4.29-2.46C126.42,138.04,126.63,136.82,127.19,135.43z M102.05,122.37c19.39-18.13,32.04-27.54,37.99-28.24
	c2.48-0.29,3.82,0.42,4.02,2.14c0.19,1.59-0.49,3.45-2.02,5.6c-1.16,1.54-8.45,8.79-21.86,21.74
	c-11.16,11.3-16.63,17.82-16.43,19.53c0.07,0.59,0.72,0.85,1.95,0.78c1.23-0.07,1.86-0.01,1.88,0.19c0.07,0.63-0.83,1.05-2.7,1.27
	c-2.65,0.31-4.07-0.44-4.28-2.25c-0.39-3.36,4.59-10.34,14.94-20.95c3.63-3.73,10.57-10.32,20.82-19.79
	c3.46-3.22,5.11-5.39,4.98-6.51c-0.05-0.42-0.37-0.61-0.95-0.54c-2.1,0.25-7.7,3.91-16.81,10.99c-7.27,5.67-12.66,10.13-16.19,13.4
	c-3.4,3.13-7.85,7.52-13.33,13.17c-9.86,10.18-14.95,15.28-15.3,15.32c-0.45,0.05-1.01-0.1-1.67-0.45
	c-0.66-0.35-1.02-0.69-1.06-1.02c-0.1-0.87,5.72-7.67,17.44-20.4c11.72-12.73,17.49-19.99,17.31-21.78c-0.05-0.45-0.39-0.64-1-0.57
	c-1.55,0.18-5.39,2.44-11.5,6.78c-5.64,4.01-11.75,8.94-18.37,14.79l-17.08,15.61l-5.94,5.89c-3.32,3.28-5.11,4.94-5.4,4.98
	c-0.49,0.06-1.1-0.06-1.88-0.32c-0.86-0.29-1.31-0.6-1.35-0.94c-0.09-0.73,3.35-4.69,10.32-11.85l19.47-20.13
	c6.91-7.51,10.28-12.04,10.1-13.6c-0.07-0.58-0.49-0.82-1.29-0.73c-2.21,0.26-6.58,2.85-13.11,7.8
	c-4.88,3.72-11.72,10.06-20.51,19.02c-0.54,0.56-1,0.86-1.36,0.9c-0.67,0.08-1.03-0.08-1.07-0.45c-0.07-0.58,2.32-3.42,7.17-8.53
	c3.46-3.62,7.91-7.53,13.36-11.75c7.04-5.43,12.27-8.35,15.64-8.74c2.27-0.27,3.51,0.51,3.72,2.31c0.36,3.04-4.41,10.12-14.31,21.24
	c17.31-15.28,28.37-23.2,33.17-23.76c2.27-0.27,3.5,0.45,3.7,2.15C113.58,107.32,109.84,113.23,102.05,122.37z"/>
<path class="st4" d="M291.02,180.2l-0.24,2.02h-4.53c-0.69,0-1.15-0.05-1.4-0.15c-0.21-0.05-0.47-0.24-0.76-0.55l-1.41-1.51
	l-1.45,1.67c-0.18,0.2-0.41,0.34-0.71,0.43l-1,0.12h-6.23c-1.19,0-2.09-0.27-2.69-0.82c-0.61-0.55-0.91-1.35-0.91-2.4v-5.71
	c0-0.72,0.25-1.29,0.76-1.7c0.47-0.38,1.07-0.57,1.81-0.57h2.18l-2.07-2.27c-0.65-0.72-1.01-1.41-1.08-2.08
	c0-0.8,0.33-1.38,0.98-1.72c0.27-0.14,0.68-0.26,1.25-0.37c0.48-0.09,1.02-0.14,1.62-0.14h11.62l0.35,2.2
	c-0.83-0.22-2.05-0.33-3.66-0.33h-6.73c-0.24,0-0.38,0.1-0.42,0.32l0.14,0.29l0.27,0.43l0.94,0.92l6.5,7.13l1.76-2
	c0.27-0.3,0.41-0.8,0.41-1.48v-0.93h2.1v1.68c0,0.47-0.06,0.82-0.17,1.04c-0.05,0.2-0.22,0.45-0.52,0.78l-2.22,2.41l2.25,2.46
	c0.66,0.72,1.28,1.08,1.87,1.08l0.68-0.09L291.02,180.2z M281.31,178.57l-5.3-5.82h-0.85c-0.3,0-0.49,0.03-0.57,0.09
	c-0.07,0.07-0.13,0.26-0.17,0.59v5.82c0,0.45,0.07,0.75,0.19,0.9c0.17,0.14,0.44,0.21,0.82,0.21h3.57c0.34,0,0.59-0.04,0.75-0.12
	l0.76-0.71L281.31,178.57z M506.72,180.06l-0.32,2.16h-16.65l0.18-0.61l0.11-0.57l0.06-1.42l-0.06-14.02
	c-0.01-0.24-0.03-0.39-0.05-0.46c0-0.11-0.08-0.35-0.23-0.7h16.65l0.32,2.15c-0.79-0.18-2.01-0.27-3.66-0.27h-8.23v6.04h7.35
	c1.73,0,2.98-0.1,3.75-0.31v2.49c-0.9-0.21-2.15-0.31-3.75-0.31h-7.35v6.13h8.23C504.75,180.35,505.97,180.26,506.72,180.06z
	 M485.85,182.22h-5.43l-4.04-7.97h-6.3v5.39l0.09,1.9l0.28,0.68h-5.42l0.19-0.6l0.12-0.57v-1.43V165.6c0-0.22-0.02-0.37-0.06-0.46
	c0-0.11-0.09-0.35-0.25-0.7h15.52c1.54,0,2.66,0.26,3.34,0.76c0.69,0.51,1.03,1.39,1.03,2.66v3.24c0,1.19-0.3,2.03-0.9,2.52
	c-0.54,0.45-1.43,0.68-2.65,0.68l1.92,3.92l0.64,1.16c0.05,0.12,0.22,0.44,0.52,0.97l0.29,0.5l0.37,0.6L485.85,182.22z
	 M480.29,171.05v-3.4c0-0.51-0.09-0.86-0.28-1.05c-0.15-0.19-0.48-0.29-1-0.29h-8.94v6.07h8.94c0.51,0,0.84-0.09,1-0.29
	C480.15,171.93,480.24,171.58,480.29,171.05z M455.86,182.22h-11.4c-1.45,0-2.52-0.29-3.2-0.86c-0.69-0.57-1.03-1.45-1.03-2.64
	v-10.79c0-1.18,0.33-2.06,1-2.63c0.67-0.57,1.74-0.86,3.23-0.86h11.4c1.48,0,2.56,0.28,3.24,0.84c0.68,0.56,1.02,1.44,1.02,2.65
	v10.79c0,1.16-0.34,2.04-1.01,2.63c-0.28,0.25-0.72,0.46-1.31,0.63C457.24,182.14,456.6,182.22,455.86,182.22z M455.38,179.09
	v-11.53c0-0.49-0.09-0.83-0.25-1.02c-0.19-0.16-0.53-0.24-1.03-0.24h-7.81c-0.88,0-1.33,0.42-1.33,1.26v11.53
	c0,0.84,0.44,1.26,1.33,1.26h7.81c0.44,0,0.78-0.08,1.03-0.24C455.29,179.95,455.38,179.61,455.38,179.09z M433.03,166.31h-3.22
	l0.03,14.72c0.01,0.29,0.03,0.46,0.06,0.52c0.06,0.22,0.14,0.44,0.26,0.68h-5.44c0.08-0.14,0.15-0.34,0.2-0.6
	c0.07-0.19,0.1-0.37,0.11-0.54l0.06-1.45v-13.33h-3.18l-1.95,0.06c-0.32,0.01-0.63,0.04-0.93,0.08c-0.15,0.02-0.38,0.09-0.69,0.19
	l0.43-2.2h17.45l0.36,2.2c-0.29-0.09-0.8-0.18-1.52-0.27L433.03,166.31z M410.33,182.22h-13.62l-0.33-2.16
	c0.79,0.19,1.99,0.29,3.57,0.29h8.83c0.5,0,0.84-0.09,1.01-0.26c0.17-0.17,0.26-0.51,0.26-1.01v-2.88c0-0.48-0.08-0.81-0.22-1
	c-0.17-0.17-0.52-0.25-1.05-0.25h-8.2c-1.55,0-2.67-0.26-3.35-0.78c-0.68-0.52-1.02-1.43-1.02-2.74v-3.49c0-1.38,0.4-2.33,1.19-2.87
	c0.65-0.43,1.7-0.65,3.17-0.65h13.48l0.38,2.15c-0.78-0.18-2-0.27-3.64-0.27h-8.67c-0.5,0-0.84,0.09-1.02,0.26
	c-0.18,0.17-0.27,0.51-0.27,1v2.32c0,0.47,0.09,0.81,0.26,1.02c0.19,0.15,0.53,0.22,1.02,0.22h8.23c1.59,0,2.71,0.26,3.39,0.77
	c0.67,0.52,1,1.43,1,2.75v4.05c0,1.28-0.35,2.19-1.03,2.72C413.02,181.95,411.89,182.22,410.33,182.22z M381.48,166.31h-8.43v6.04
	h7.21c1.72,0,2.97-0.1,3.74-0.31v2.49c-0.89-0.21-2.14-0.31-3.74-0.31h-7.21v5.41l0.08,1.91l0.25,0.68h-5.41l0.18-0.6l0.11-0.57
	l0.06-1.43l-0.06-14.03c0-0.24-0.02-0.39-0.05-0.46c0-0.11-0.08-0.35-0.23-0.7h16.8l0.36,2.15
	C384.4,166.4,383.18,166.31,381.48,166.31z M364.2,180.06l-0.37,2.16h-16.94l0.24-0.61l0.1-0.54v-1.45v-14
	c-0.01-0.3-0.03-0.48-0.07-0.54c0-0.14-0.09-0.36-0.27-0.65h5.46l-0.22,0.57l-0.08,0.57l-0.08,1.44v13.34h8.62
	C362.29,180.35,363.5,180.26,364.2,180.06z M342.8,180.06l-0.32,2.16h-16.65l0.18-0.61l0.11-0.57l0.06-1.42l-0.06-14.02
	c-0.01-0.24-0.03-0.39-0.05-0.46c0-0.11-0.08-0.35-0.23-0.7h16.65l0.32,2.15c-0.79-0.18-2.01-0.27-3.66-0.27h-8.23v6.04h7.35
	c1.73,0,2.98-0.1,3.75-0.31v2.49c-0.9-0.21-2.15-0.31-3.75-0.31h-7.35v6.13h8.23C340.83,180.35,342.05,180.26,342.8,180.06z
	 M316.79,182.22h-13.62l-0.33-2.16c0.79,0.19,1.99,0.29,3.57,0.29h8.83c0.5,0,0.84-0.09,1.01-0.26c0.17-0.17,0.26-0.51,0.26-1.01
	v-2.88c0-0.48-0.08-0.81-0.22-1c-0.17-0.17-0.52-0.25-1.05-0.25h-8.2c-1.55,0-2.67-0.26-3.35-0.78c-0.68-0.52-1.02-1.43-1.02-2.74
	v-3.49c0-1.38,0.4-2.33,1.19-2.87c0.65-0.43,1.7-0.65,3.17-0.65h13.48l0.38,2.15c-0.78-0.18-2-0.27-3.64-0.27h-8.67
	c-0.5,0-0.84,0.09-1.02,0.26c-0.18,0.17-0.27,0.51-0.27,1v2.32c0,0.47,0.09,0.81,0.26,1.02c0.19,0.15,0.53,0.22,1.02,0.22h8.23
	c1.59,0,2.71,0.26,3.39,0.77c0.67,0.52,1,1.43,1,2.75v4.05c0,1.28-0.35,2.19-1.03,2.72C319.48,181.95,318.35,182.22,316.79,182.22z
	 M257.2,182.22h-4.29l-0.33-1.35c-0.14,0.63-0.45,1.04-0.95,1.21c-0.28,0.09-0.84,0.14-1.69,0.14h-8.59c-1.51,0-2.6-0.26-3.26-0.79
	c-0.63-0.5-0.95-1.37-0.95-2.6v-11.06c0-1.31,0.39-2.22,1.18-2.73c0.63-0.41,1.65-0.61,3.05-0.61h14.61l0.31,2.18l-1.65-0.3
	l-2.06-0.09h-9.37c-0.51,0-0.86,0.08-1.05,0.24c-0.18,0.19-0.28,0.52-0.28,1v11.63c0,0.84,0.44,1.26,1.32,1.26h7.82
	c0.44,0,0.75-0.08,0.93-0.22c0.17-0.15,0.26-0.44,0.26-0.88v-5.76h-5.38c-1.51,0-2.56,0.1-3.16,0.3v-2.18h13.53l-0.2,1.24
	l-0.05,1.33v6.97L257.2,182.22z M231.8,167.52v14.7h-5.68l-11.81-15.1l-0.05,12.4c0,0.5,0.03,0.98,0.08,1.45
	c0.06,0.43,0.14,0.84,0.26,1.25h-2.98c0.06-0.11,0.11-0.35,0.17-0.73l0.11-0.75l0.06-2.18v-10.87c0-1.59-0.11-2.68-0.34-3.25h5.99
	l11.86,15.03v-13.7c-0.02-0.38-0.12-0.82-0.29-1.33h2.98l-0.19,0.65c-0.07,0.2-0.1,0.48-0.11,0.84L231.8,167.52z M206.26,182.22
	h-5.5l0.23-0.6l0.09-0.54l0.11-1.46l-0.11-14.01c-0.01-0.15-0.03-0.33-0.06-0.54c0-0.09-0.08-0.31-0.26-0.65h5.5l-0.23,0.57
	l-0.05,0.57l-0.06,1.44l0.06,14.53L206.26,182.22z M195.59,166.69l-6.87,15.53h-4.79l-6.76-14.78c-0.61-1.33-1.21-2.33-1.79-3.01
	h6.01l-0.02,0.51c-0.01,0.22,0.03,0.47,0.14,0.74l0.51,1.31l5.57,12.6l5.55-12.6c0.28-0.65,0.5-1.33,0.64-2.04l-0.08-0.52h3.37
	c-0.21,0.24-0.46,0.58-0.73,1.01C196.14,165.72,195.9,166.14,195.59,166.69z M167.94,182.22h-11.4c-1.45,0-2.52-0.29-3.2-0.86
	c-0.69-0.57-1.03-1.45-1.03-2.64v-10.79c0-1.18,0.33-2.06,1-2.63c0.67-0.57,1.74-0.86,3.23-0.86h11.4c1.48,0,2.56,0.28,3.24,0.84
	c0.68,0.56,1.02,1.44,1.02,2.65v10.79c0,1.16-0.34,2.04-1.01,2.63c-0.28,0.25-0.72,0.46-1.31,0.63
	C169.32,182.14,168.68,182.22,167.94,182.22z M167.46,179.09v-11.53c0-0.49-0.09-0.83-0.25-1.02c-0.19-0.16-0.53-0.24-1.03-0.24
	h-7.81c-0.88,0-1.33,0.42-1.33,1.26v11.53c0,0.84,0.44,1.26,1.33,1.26h7.81c0.44,0,0.78-0.08,1.03-0.24
	C167.37,179.95,167.46,179.61,167.46,179.09z M146.91,167.52l0.06,13.51c0.01,0.14,0.03,0.31,0.06,0.51
	c0.02,0.08,0.04,0.17,0.07,0.26c0.03,0.1,0.08,0.24,0.16,0.42h-5.33l0.21-0.6l0.1-0.54l0.06-1.46v-12.96l-7.77,15.56h-3.78
	l-7.65-15.56l0.05,14.96l0.23,0.6h-2.98c0.06-0.11,0.11-0.35,0.17-0.73l0.11-0.75l0.05-2.18v-10.87c0-1.48-0.1-2.57-0.3-3.25h6.44
	l7.11,14.33l7.13-14.33h6.19l-0.19,0.76L146.91,167.52z"/>
<path class="st7" d="M290.03,178.2l-0.24,2.02h-4.53c-0.69,0-1.15-0.05-1.4-0.15c-0.21-0.05-0.47-0.24-0.76-0.55l-1.41-1.51
	l-1.45,1.67c-0.18,0.2-0.41,0.34-0.71,0.43l-1,0.12h-6.23c-1.19,0-2.09-0.27-2.69-0.82c-0.61-0.55-0.91-1.35-0.91-2.4v-5.71
	c0-0.72,0.25-1.29,0.76-1.7c0.47-0.38,1.07-0.57,1.81-0.57h2.18l-2.07-2.27c-0.65-0.72-1.01-1.41-1.08-2.08
	c0-0.8,0.33-1.38,0.98-1.72c0.27-0.14,0.68-0.26,1.25-0.37c0.48-0.09,1.02-0.14,1.62-0.14h11.62l0.35,2.2
	c-0.83-0.22-2.05-0.33-3.66-0.33h-6.73c-0.24,0-0.38,0.1-0.42,0.32l0.14,0.29l0.27,0.43l0.94,0.92l6.5,7.13l1.76-2
	c0.27-0.3,0.41-0.8,0.41-1.48v-0.93h2.1v1.68c0,0.47-0.06,0.82-0.17,1.04c-0.05,0.2-0.22,0.45-0.52,0.78l-2.22,2.41l2.25,2.46
	c0.66,0.72,1.28,1.08,1.87,1.08l0.68-0.09L290.03,178.2z M280.31,176.57l-5.31-5.82h-0.85c-0.3,0-0.49,0.03-0.57,0.09
	c-0.07,0.07-0.13,0.26-0.17,0.59v5.82c0,0.45,0.07,0.75,0.19,0.9c0.17,0.14,0.44,0.21,0.82,0.21h3.57c0.34,0,0.59-0.04,0.75-0.12
	l0.76-0.71L280.31,176.57z M505.72,178.07l-0.32,2.16h-16.65l0.18-0.61l0.11-0.57l0.06-1.42l-0.06-14.02
	c-0.01-0.24-0.03-0.39-0.05-0.46c0-0.11-0.08-0.35-0.23-0.7h16.65l0.32,2.15c-0.79-0.18-2.01-0.27-3.66-0.27h-8.23v6.04h7.35
	c1.73,0,2.98-0.1,3.75-0.31v2.49c-0.9-0.21-2.15-0.31-3.75-0.31h-7.35v6.13h8.23C503.75,178.35,504.97,178.26,505.72,178.07z
	 M484.85,180.23h-5.43l-4.04-7.97h-6.3v5.39l0.09,1.9l0.28,0.68h-5.42l0.19-0.6l0.12-0.57v-1.43V163.6c0-0.22-0.02-0.37-0.06-0.46
	c0-0.11-0.09-0.35-0.25-0.7h15.52c1.54,0,2.66,0.26,3.34,0.76c0.69,0.51,1.03,1.39,1.03,2.66v3.24c0,1.19-0.3,2.03-0.9,2.52
	c-0.54,0.45-1.43,0.68-2.65,0.68l1.92,3.92l0.64,1.16c0.05,0.12,0.22,0.44,0.52,0.97l0.29,0.5l0.37,0.6L484.85,180.23z
	 M479.3,169.05v-3.4c0-0.51-0.09-0.86-0.28-1.05c-0.15-0.19-0.48-0.29-1-0.29h-8.94v6.07h8.94c0.51,0,0.84-0.09,1-0.29
	C479.15,169.93,479.24,169.59,479.3,169.05z M454.86,180.23h-11.4c-1.45,0-2.52-0.29-3.2-0.86c-0.69-0.57-1.03-1.45-1.03-2.64
	v-10.79c0-1.18,0.33-2.06,1-2.63c0.67-0.57,1.74-0.86,3.23-0.86h11.4c1.48,0,2.56,0.28,3.24,0.84c0.68,0.56,1.02,1.44,1.02,2.65
	v10.79c0,1.16-0.34,2.04-1.01,2.63c-0.28,0.25-0.72,0.46-1.31,0.63C456.24,180.15,455.61,180.23,454.86,180.23z M454.38,177.1
	v-11.53c0-0.49-0.09-0.83-0.25-1.02c-0.19-0.16-0.53-0.24-1.03-0.24h-7.81c-0.88,0-1.33,0.42-1.33,1.26v11.53
	c0,0.84,0.44,1.26,1.33,1.26h7.81c0.44,0,0.78-0.08,1.03-0.24C454.3,177.95,454.38,177.61,454.38,177.1z M432.03,164.31h-3.22
	l0.03,14.72c0.01,0.29,0.03,0.46,0.06,0.52c0.06,0.22,0.14,0.44,0.26,0.68h-5.44c0.08-0.14,0.15-0.34,0.2-0.6
	c0.07-0.19,0.1-0.37,0.11-0.54l0.06-1.45v-13.33h-3.18l-1.95,0.06c-0.32,0.01-0.63,0.04-0.93,0.08c-0.15,0.02-0.38,0.09-0.69,0.19
	l0.43-2.2h17.45l0.36,2.2c-0.29-0.09-0.8-0.18-1.52-0.27L432.03,164.31z M409.33,180.23h-13.62l-0.33-2.16
	c0.79,0.19,1.99,0.29,3.57,0.29h8.83c0.5,0,0.84-0.09,1.01-0.26c0.17-0.17,0.26-0.51,0.26-1.01v-2.88c0-0.48-0.08-0.81-0.22-1
	c-0.17-0.17-0.52-0.25-1.05-0.25h-8.2c-1.55,0-2.67-0.26-3.35-0.78c-0.68-0.52-1.02-1.43-1.02-2.74v-3.49c0-1.38,0.4-2.33,1.19-2.87
	c0.65-0.43,1.7-0.65,3.17-0.65h13.48l0.38,2.15c-0.78-0.18-2-0.27-3.64-0.27h-8.67c-0.5,0-0.84,0.09-1.02,0.26
	c-0.18,0.17-0.27,0.51-0.27,1v2.32c0,0.47,0.09,0.81,0.26,1.02c0.19,0.15,0.53,0.22,1.02,0.22h8.23c1.59,0,2.71,0.26,3.39,0.77
	c0.67,0.52,1,1.43,1,2.75v4.05c0,1.28-0.35,2.19-1.03,2.72C412.02,179.96,410.89,180.23,409.33,180.23z M380.48,164.31h-8.43v6.04
	h7.21c1.72,0,2.97-0.1,3.74-0.31v2.49c-0.89-0.21-2.14-0.31-3.74-0.31h-7.21v5.41l0.08,1.91l0.25,0.68h-5.41l0.18-0.6l0.11-0.57
	l0.06-1.43l-0.06-14.03c0-0.24-0.02-0.39-0.05-0.46c0-0.11-0.08-0.35-0.23-0.7h16.8l0.36,2.15
	C383.4,164.4,382.18,164.31,380.48,164.31z M363.2,178.07l-0.37,2.16h-16.94l0.24-0.61l0.1-0.54v-1.45v-14
	c-0.01-0.3-0.03-0.48-0.07-0.54c0-0.14-0.09-0.36-0.27-0.65h5.46l-0.22,0.57l-0.08,0.57l-0.08,1.44v13.34h8.62
	C361.29,178.35,362.5,178.26,363.2,178.07z M341.8,178.07l-0.32,2.16h-16.65l0.18-0.61l0.11-0.57l0.06-1.42l-0.06-14.02
	c-0.01-0.24-0.03-0.39-0.05-0.46c0-0.11-0.08-0.35-0.23-0.7h16.65l0.32,2.15c-0.79-0.18-2.01-0.27-3.66-0.27h-8.23v6.04h7.35
	c1.73,0,2.98-0.1,3.75-0.31v2.49c-0.9-0.21-2.15-0.31-3.75-0.31h-7.35v6.13h8.23C339.83,178.35,341.05,178.26,341.8,178.07z
	 M315.8,180.23h-13.62l-0.33-2.16c0.79,0.19,1.99,0.29,3.57,0.29h8.83c0.5,0,0.84-0.09,1.01-0.26c0.17-0.17,0.26-0.51,0.26-1.01
	v-2.88c0-0.48-0.08-0.81-0.22-1c-0.17-0.17-0.52-0.25-1.05-0.25h-8.2c-1.55,0-2.67-0.26-3.35-0.78c-0.68-0.52-1.02-1.43-1.02-2.74
	v-3.49c0-1.38,0.4-2.33,1.19-2.87c0.65-0.43,1.7-0.65,3.17-0.65h13.48l0.38,2.15c-0.78-0.18-2-0.27-3.64-0.27h-8.67
	c-0.5,0-0.84,0.09-1.02,0.26c-0.18,0.17-0.27,0.51-0.27,1v2.32c0,0.47,0.09,0.81,0.26,1.02c0.19,0.15,0.53,0.22,1.02,0.22h8.23
	c1.59,0,2.71,0.26,3.39,0.77c0.67,0.52,1,1.43,1,2.75v4.05c0,1.28-0.35,2.19-1.03,2.72C318.48,179.96,317.36,180.23,315.8,180.23z
	 M256.2,180.23h-4.29l-0.33-1.35c-0.14,0.63-0.45,1.04-0.95,1.21c-0.28,0.09-0.84,0.14-1.69,0.14h-8.59c-1.51,0-2.6-0.26-3.26-0.79
	c-0.63-0.5-0.95-1.37-0.95-2.6v-11.06c0-1.31,0.39-2.22,1.18-2.73c0.63-0.41,1.65-0.61,3.05-0.61h14.61l0.31,2.18l-1.65-0.3
	l-2.06-0.09h-9.37c-0.51,0-0.86,0.08-1.05,0.24c-0.18,0.19-0.28,0.52-0.28,1v11.63c0,0.84,0.44,1.26,1.32,1.26h7.82
	c0.44,0,0.75-0.08,0.93-0.22c0.17-0.15,0.26-0.44,0.26-0.88v-5.76h-5.38c-1.51,0-2.56,0.1-3.16,0.3v-2.18h13.53l-0.2,1.24
	l-0.05,1.33v6.97L256.2,180.23z M230.8,165.53v14.7h-5.68l-11.81-15.1l-0.05,12.4c0,0.5,0.03,0.98,0.08,1.45
	c0.06,0.43,0.14,0.84,0.26,1.25h-2.98c0.06-0.11,0.11-0.35,0.17-0.73l0.11-0.75l0.06-2.18v-10.87c0-1.59-0.11-2.68-0.34-3.25h5.99
	l11.86,15.03v-13.7c-0.02-0.38-0.12-0.82-0.29-1.33h2.98l-0.19,0.65c-0.07,0.2-0.1,0.48-0.11,0.84L230.8,165.53z M205.26,180.23
	h-5.5l0.23-0.6l0.09-0.54l0.11-1.46l-0.11-14.01c-0.01-0.15-0.03-0.33-0.06-0.54c0-0.09-0.08-0.31-0.26-0.65h5.5l-0.23,0.57
	l-0.05,0.57l-0.06,1.44l0.06,14.53L205.26,180.23z M194.59,164.7l-6.87,15.53h-4.79l-6.76-14.78c-0.61-1.33-1.21-2.33-1.79-3.01
	h6.01l-0.02,0.51c-0.01,0.22,0.03,0.47,0.14,0.74l0.51,1.31l5.57,12.6l5.55-12.6c0.28-0.65,0.5-1.33,0.64-2.04l-0.09-0.52h3.37
	c-0.21,0.24-0.46,0.58-0.73,1.01C195.15,163.73,194.9,164.14,194.59,164.7z M166.94,180.23h-11.4c-1.45,0-2.52-0.29-3.2-0.86
	c-0.69-0.57-1.03-1.45-1.03-2.64v-10.79c0-1.18,0.33-2.06,1-2.63c0.67-0.57,1.74-0.86,3.23-0.86h11.4c1.48,0,2.56,0.28,3.24,0.84
	c0.68,0.56,1.02,1.44,1.02,2.65v10.79c0,1.16-0.34,2.04-1.01,2.63c-0.28,0.25-0.72,0.46-1.31,0.63
	C168.32,180.15,167.69,180.23,166.94,180.23z M166.46,177.1v-11.53c0-0.49-0.09-0.83-0.25-1.02c-0.19-0.16-0.53-0.24-1.03-0.24
	h-7.81c-0.88,0-1.33,0.42-1.33,1.26v11.53c0,0.84,0.44,1.26,1.33,1.26h7.81c0.44,0,0.78-0.08,1.03-0.24
	C166.38,177.95,166.46,177.61,166.46,177.1z M145.91,165.53l0.06,13.51c0.01,0.14,0.03,0.31,0.06,0.51
	c0.02,0.08,0.04,0.17,0.07,0.26c0.03,0.1,0.08,0.24,0.16,0.42h-5.33l0.21-0.6l0.1-0.54l0.06-1.46v-12.96l-7.77,15.56h-3.78
	l-7.65-15.56l0.05,14.96l0.23,0.6h-2.98c0.06-0.11,0.11-0.35,0.17-0.73l0.11-0.75l0.05-2.18v-10.87c0-1.48-0.1-2.57-0.3-3.25h6.44
	l7.11,14.33l7.13-14.33h6.19l-0.19,0.76L145.91,165.53z"/>
<path class="st6" d="M290.03,178.2l-0.24,2.02h-4.53c-0.69,0-1.15-0.05-1.4-0.15c-0.21-0.05-0.47-0.24-0.76-0.55l-1.41-1.51
	l-1.45,1.67c-0.18,0.2-0.41,0.34-0.71,0.43l-1,0.12h-6.23c-1.19,0-2.09-0.27-2.69-0.82c-0.61-0.55-0.91-1.35-0.91-2.4v-5.71
	c0-0.72,0.25-1.29,0.76-1.7c0.47-0.38,1.07-0.57,1.81-0.57h2.18l-2.07-2.27c-0.65-0.72-1.01-1.41-1.08-2.08
	c0-0.8,0.33-1.38,0.98-1.72c0.27-0.14,0.68-0.26,1.25-0.37c0.48-0.09,1.02-0.14,1.62-0.14h11.62l0.35,2.2
	c-0.83-0.22-2.05-0.33-3.66-0.33h-6.73c-0.24,0-0.38,0.1-0.42,0.32l0.14,0.29l0.27,0.43l0.94,0.92l6.5,7.13l1.76-2
	c0.27-0.3,0.41-0.8,0.41-1.48v-0.93h2.1v1.68c0,0.47-0.06,0.82-0.17,1.04c-0.05,0.2-0.22,0.45-0.52,0.78l-2.22,2.41l2.25,2.46
	c0.66,0.72,1.28,1.08,1.87,1.08l0.68-0.09L290.03,178.2z M280.31,176.57l-5.31-5.82h-0.85c-0.3,0-0.49,0.03-0.57,0.09
	c-0.07,0.07-0.13,0.26-0.17,0.59v5.82c0,0.45,0.07,0.75,0.19,0.9c0.17,0.14,0.44,0.21,0.82,0.21h3.57c0.34,0,0.59-0.04,0.75-0.12
	l0.76-0.71L280.31,176.57z M505.72,178.07l-0.32,2.16h-16.65l0.18-0.61l0.11-0.57l0.06-1.42l-0.06-14.02
	c-0.01-0.24-0.03-0.39-0.05-0.46c0-0.11-0.08-0.35-0.23-0.7h16.65l0.32,2.15c-0.79-0.18-2.01-0.27-3.66-0.27h-8.23v6.04h7.35
	c1.73,0,2.98-0.1,3.75-0.31v2.49c-0.9-0.21-2.15-0.31-3.75-0.31h-7.35v6.13h8.23C503.75,178.35,504.97,178.26,505.72,178.07z
	 M484.85,180.23h-5.43l-4.04-7.97h-6.3v5.39l0.09,1.9l0.28,0.68h-5.42l0.19-0.6l0.12-0.57v-1.43V163.6c0-0.22-0.02-0.37-0.06-0.46
	c0-0.11-0.09-0.35-0.25-0.7h15.52c1.54,0,2.66,0.26,3.34,0.76c0.69,0.51,1.03,1.39,1.03,2.66v3.24c0,1.19-0.3,2.03-0.9,2.52
	c-0.54,0.45-1.43,0.68-2.65,0.68l1.92,3.92l0.64,1.16c0.05,0.12,0.22,0.44,0.52,0.97l0.29,0.5l0.37,0.6L484.85,180.23z
	 M479.3,169.05v-3.4c0-0.51-0.09-0.86-0.28-1.05c-0.15-0.19-0.48-0.29-1-0.29h-8.94v6.07h8.94c0.51,0,0.84-0.09,1-0.29
	C479.15,169.93,479.24,169.59,479.3,169.05z M454.86,180.23h-11.4c-1.45,0-2.52-0.29-3.2-0.86c-0.69-0.57-1.03-1.45-1.03-2.64
	v-10.79c0-1.18,0.33-2.06,1-2.63c0.67-0.57,1.74-0.86,3.23-0.86h11.4c1.48,0,2.56,0.28,3.24,0.84c0.68,0.56,1.02,1.44,1.02,2.65
	v10.79c0,1.16-0.34,2.04-1.01,2.63c-0.28,0.25-0.72,0.46-1.31,0.63C456.24,180.15,455.61,180.23,454.86,180.23z M454.38,177.1
	v-11.53c0-0.49-0.09-0.83-0.25-1.02c-0.19-0.16-0.53-0.24-1.03-0.24h-7.81c-0.88,0-1.33,0.42-1.33,1.26v11.53
	c0,0.84,0.44,1.26,1.33,1.26h7.81c0.44,0,0.78-0.08,1.03-0.24C454.3,177.95,454.38,177.61,454.38,177.1z M432.03,164.31h-3.22
	l0.03,14.72c0.01,0.29,0.03,0.46,0.06,0.52c0.06,0.22,0.14,0.44,0.26,0.68h-5.44c0.08-0.14,0.15-0.34,0.2-0.6
	c0.07-0.19,0.1-0.37,0.11-0.54l0.06-1.45v-13.33h-3.18l-1.95,0.06c-0.32,0.01-0.63,0.04-0.93,0.08c-0.15,0.02-0.38,0.09-0.69,0.19
	l0.43-2.2h17.45l0.36,2.2c-0.29-0.09-0.8-0.18-1.52-0.27L432.03,164.31z M409.33,180.23h-13.62l-0.33-2.16
	c0.79,0.19,1.99,0.29,3.57,0.29h8.83c0.5,0,0.84-0.09,1.01-0.26c0.17-0.17,0.26-0.51,0.26-1.01v-2.88c0-0.48-0.08-0.81-0.22-1
	c-0.17-0.17-0.52-0.25-1.05-0.25h-8.2c-1.55,0-2.67-0.26-3.35-0.78c-0.68-0.52-1.02-1.43-1.02-2.74v-3.49c0-1.38,0.4-2.33,1.19-2.87
	c0.65-0.43,1.7-0.65,3.17-0.65h13.48l0.38,2.15c-0.78-0.18-2-0.27-3.64-0.27h-8.67c-0.5,0-0.84,0.09-1.02,0.26
	c-0.18,0.17-0.27,0.51-0.27,1v2.32c0,0.47,0.09,0.81,0.26,1.02c0.19,0.15,0.53,0.22,1.02,0.22h8.23c1.59,0,2.71,0.26,3.39,0.77
	c0.67,0.52,1,1.43,1,2.75v4.05c0,1.28-0.35,2.19-1.03,2.72C412.02,179.96,410.89,180.23,409.33,180.23z M380.48,164.31h-8.43v6.04
	h7.21c1.72,0,2.97-0.1,3.74-0.31v2.49c-0.89-0.21-2.14-0.31-3.74-0.31h-7.21v5.41l0.08,1.91l0.25,0.68h-5.41l0.18-0.6l0.11-0.57
	l0.06-1.43l-0.06-14.03c0-0.24-0.02-0.39-0.05-0.46c0-0.11-0.08-0.35-0.23-0.7h16.8l0.36,2.15
	C383.4,164.4,382.18,164.31,380.48,164.31z M363.2,178.07l-0.37,2.16h-16.94l0.24-0.61l0.1-0.54v-1.45v-14
	c-0.01-0.3-0.03-0.48-0.07-0.54c0-0.14-0.09-0.36-0.27-0.65h5.46l-0.22,0.57l-0.08,0.57l-0.08,1.44v13.34h8.62
	C361.29,178.35,362.5,178.26,363.2,178.07z M341.8,178.07l-0.32,2.16h-16.65l0.18-0.61l0.11-0.57l0.06-1.42l-0.06-14.02
	c-0.01-0.24-0.03-0.39-0.05-0.46c0-0.11-0.08-0.35-0.23-0.7h16.65l0.32,2.15c-0.79-0.18-2.01-0.27-3.66-0.27h-8.23v6.04h7.35
	c1.73,0,2.98-0.1,3.75-0.31v2.49c-0.9-0.21-2.15-0.31-3.75-0.31h-7.35v6.13h8.23C339.83,178.35,341.05,178.26,341.8,178.07z
	 M315.8,180.23h-13.62l-0.33-2.16c0.79,0.19,1.99,0.29,3.57,0.29h8.83c0.5,0,0.84-0.09,1.01-0.26c0.17-0.17,0.26-0.51,0.26-1.01
	v-2.88c0-0.48-0.08-0.81-0.22-1c-0.17-0.17-0.52-0.25-1.05-0.25h-8.2c-1.55,0-2.67-0.26-3.35-0.78c-0.68-0.52-1.02-1.43-1.02-2.74
	v-3.49c0-1.38,0.4-2.33,1.19-2.87c0.65-0.43,1.7-0.65,3.17-0.65h13.48l0.38,2.15c-0.78-0.18-2-0.27-3.64-0.27h-8.67
	c-0.5,0-0.84,0.09-1.02,0.26c-0.18,0.17-0.27,0.51-0.27,1v2.32c0,0.47,0.09,0.81,0.26,1.02c0.19,0.15,0.53,0.22,1.02,0.22h8.23
	c1.59,0,2.71,0.26,3.39,0.77c0.67,0.52,1,1.43,1,2.75v4.05c0,1.28-0.35,2.19-1.03,2.72C318.48,179.96,317.36,180.23,315.8,180.23z
	 M256.2,180.23h-4.29l-0.33-1.35c-0.14,0.63-0.45,1.04-0.95,1.21c-0.28,0.09-0.84,0.14-1.69,0.14h-8.59c-1.51,0-2.6-0.26-3.26-0.79
	c-0.63-0.5-0.95-1.37-0.95-2.6v-11.06c0-1.31,0.39-2.22,1.18-2.73c0.63-0.41,1.65-0.61,3.05-0.61h14.61l0.31,2.18l-1.65-0.3
	l-2.06-0.09h-9.37c-0.51,0-0.86,0.08-1.05,0.24c-0.18,0.19-0.28,0.52-0.28,1v11.63c0,0.84,0.44,1.26,1.32,1.26h7.82
	c0.44,0,0.75-0.08,0.93-0.22c0.17-0.15,0.26-0.44,0.26-0.88v-5.76h-5.38c-1.51,0-2.56,0.1-3.16,0.3v-2.18h13.53l-0.2,1.24
	l-0.05,1.33v6.97L256.2,180.23z M230.8,165.53v14.7h-5.68l-11.81-15.1l-0.05,12.4c0,0.5,0.03,0.98,0.08,1.45
	c0.06,0.43,0.14,0.84,0.26,1.25h-2.98c0.06-0.11,0.11-0.35,0.17-0.73l0.11-0.75l0.06-2.18v-10.87c0-1.59-0.11-2.68-0.34-3.25h5.99
	l11.86,15.03v-13.7c-0.02-0.38-0.12-0.82-0.29-1.33h2.98l-0.19,0.65c-0.07,0.2-0.1,0.48-0.11,0.84L230.8,165.53z M205.26,180.23
	h-5.5l0.23-0.6l0.09-0.54l0.11-1.46l-0.11-14.01c-0.01-0.15-0.03-0.33-0.06-0.54c0-0.09-0.08-0.31-0.26-0.65h5.5l-0.23,0.57
	l-0.05,0.57l-0.06,1.44l0.06,14.53L205.26,180.23z M194.59,164.7l-6.87,15.53h-4.79l-6.76-14.78c-0.61-1.33-1.21-2.33-1.79-3.01
	h6.01l-0.02,0.51c-0.01,0.22,0.03,0.47,0.14,0.74l0.51,1.31l5.57,12.6l5.55-12.6c0.28-0.65,0.5-1.33,0.64-2.04l-0.09-0.52h3.37
	c-0.21,0.24-0.46,0.58-0.73,1.01C195.15,163.73,194.9,164.14,194.59,164.7z M166.94,180.23h-11.4c-1.45,0-2.52-0.29-3.2-0.86
	c-0.69-0.57-1.03-1.45-1.03-2.64v-10.79c0-1.18,0.33-2.06,1-2.63c0.67-0.57,1.74-0.86,3.23-0.86h11.4c1.48,0,2.56,0.28,3.24,0.84
	c0.68,0.56,1.02,1.44,1.02,2.65v10.79c0,1.16-0.34,2.04-1.01,2.63c-0.28,0.25-0.72,0.46-1.31,0.63
	C168.32,180.15,167.69,180.23,166.94,180.23z M166.46,177.1v-11.53c0-0.49-0.09-0.83-0.25-1.02c-0.19-0.16-0.53-0.24-1.03-0.24
	h-7.81c-0.88,0-1.33,0.42-1.33,1.26v11.53c0,0.84,0.44,1.26,1.33,1.26h7.81c0.44,0,0.78-0.08,1.03-0.24
	C166.38,177.95,166.46,177.61,166.46,177.1z M145.91,165.53l0.06,13.51c0.01,0.14,0.03,0.31,0.06,0.51
	c0.02,0.08,0.04,0.17,0.07,0.26c0.03,0.1,0.08,0.24,0.16,0.42h-5.33l0.21-0.6l0.1-0.54l0.06-1.46v-12.96l-7.77,15.56h-3.78
	l-7.65-15.56l0.05,14.96l0.23,0.6h-2.98c0.06-0.11,0.11-0.35,0.17-0.73l0.11-0.75l0.05-2.18v-10.87c0-1.48-0.1-2.57-0.3-3.25h6.44
	l7.11,14.33l7.13-14.33h6.19l-0.19,0.76L145.91,165.53z"/>
</svg>
