<?xml version="1.0" encoding="utf-8"?>
<!-- Generator: Adobe Illustrator 19.1.0, SVG Export Plug-In . SVG Version: 6.00 Build 0)  -->
<!DOCTYPE svg PUBLIC "-//W3C//DTD SVG 1.1//EN" "http://www.w3.org/Graphics/SVG/1.1/DTD/svg11.dtd">
<svg version="1.1" id="Capa_1" xmlns="http://www.w3.org/2000/svg" xmlns:xlink="http://www.w3.org/1999/xlink" x="0px" y="0px"
	 width="304.8px" height="537.9px" viewBox="135.5 -118.9 304.8 537.9" style="enable-background:new 135.5 -118.9 304.8 537.9;"
	 xml:space="preserve">
<style type="text/css">
	.st0{fill:#130762;}
</style>
<g>
	<path class="st0" d="M418.8-118.9H157c-11.9,0-21.5,9.6-21.5,21.5v494.9c0,11.9,9.7,21.5,21.5,21.5h261.8
		c11.9,0,21.5-9.6,21.5-21.5V-97.3C440.3-109.2,430.7-118.9,418.8-118.9z M287.9-100.9c9,0,16.1,7.2,16.1,16.1s-7.2,16.1-16.1,16.1
		c-9,0-16.1-7.2-16.1-16.1S279-100.9,287.9-100.9z M288.8,401.1c-12.5,0-22.5-10-22.5-22.5c0-12.5,10-22.5,22.5-22.5
		s22.5,10,22.5,22.5C311.3,391.1,301.2,401.1,288.8,401.1z M413.5,320.5c0,6-4.8,10.8-10.8,10.8H173.2c-6,0-10.8-4.8-10.8-10.8
		V-39.9c0-6,4.8-10.8,10.8-10.8h229.5c6,0,10.8,4.8,10.8,10.8V320.5z"/>
</g>
</svg>
