<?xml version="1.0" encoding="utf-8"?>
<!-- Generator: Adobe Illustrator 19.1.0, SVG Export Plug-In . SVG Version: 6.00 Build 0)  -->
<!DOCTYPE svg PUBLIC "-//W3C//DTD SVG 1.1//EN" "http://www.w3.org/Graphics/SVG/1.1/DTD/svg11.dtd">
<svg version="1.1" id="Capa_1" xmlns="http://www.w3.org/2000/svg" xmlns:xlink="http://www.w3.org/1999/xlink" x="0px" y="0px"
	 width="500.1px" height="500px" viewBox="-49 -140 500.1 500" style="enable-background:new -49 -140 500.1 500;"
	 xml:space="preserve">
<style type="text/css">
	.st0{fill:#130762;}
</style>
<g>
	<path class="st0" d="M-47.4-38.5c26.2,75.2,81.2,160.6,158.8,238.2s163,132.6,238.2,158.8c10.2,3.5,21.5,1,29.2-6.6l52-52
		l12.1-12.1c10.9-10.9,10.9-28.7,0-39.7l-80.5-80.5c-10.9-10.9-28.7-10.9-39.7,0l-21.8,21.8c-11.3,11.3-29.4,12.5-42.1,2.6
		c-25.1-19.5-49.9-41.5-74-65.5c-24.1-24.1-46-48.9-65.5-74c-9.9-12.7-8.8-30.7,2.6-42.1l21.8-21.8c10.9-10.9,10.9-28.7,0-39.7
		L63-131.8c-10.9-10.9-28.7-10.9-39.7,0l-12.1,12.1l-52,52C-48.4-60-51-48.7-47.4-38.5z"/>
</g>
</svg>
